<?xml version="1.0" encoding="UTF-8"?>
<svg version="1.1" xmlns="http://www.w3.org/2000/svg" width="160" height="160">
<path d="M0 0 C52.8 0 105.6 0 160 0 C160 52.8 160 105.6 160 160 C107.2 160 54.4 160 0 160 C0 107.2 0 54.4 0 0 Z " fill="#000000" transform="translate(0,0)"/>
<path d="M0 0 C2.375 0.875 2.375 0.875 4.375 2.875 C4.02690375 6.82387453 2.53873686 9.76556077 0.609375 13.18359375 C0.04863281 14.17810547 -0.51210937 15.17261719 -1.08984375 16.19726562 C-1.67894531 17.22529297 -2.26804687 18.25332031 -2.875 19.3125 C-3.44863281 20.33666016 -4.02226563 21.36082031 -4.61328125 22.41601562 C-7.58916433 27.65262082 -10.56113085 32.4215494 -14.625 36.875 C-19.5 36 -19.5 36 -20.625 34.875 C-21.06828035 30.00509737 -20.09106222 27.17651765 -17.703125 22.9609375 C-17.08953125 21.87039062 -16.4759375 20.77984375 -15.84375 19.65625 C-15.1940625 18.5321875 -14.544375 17.408125 -13.875 16.25 C-12.92367187 14.55230469 -12.92367187 14.55230469 -11.953125 12.8203125 C-4.53902645 -0.21614412 -4.53902645 -0.21614412 0 0 Z " fill="#BEEE4C" transform="translate(97.625,69.125)"/>
<path d="M0 0 C4.75 0.75 4.75 0.75 7 3 C6.68230165 7.42489018 5.38049119 10.62016161 3.19921875 14.44140625 C2.63396484 15.43720703 2.06871094 16.43300781 1.48632812 17.45898438 C0.89271484 18.48314453 0.29910156 19.50730469 -0.3125 20.5625 C-0.89451172 21.59052734 -1.47652344 22.61855469 -2.07617188 23.67773438 C-4.7889197 28.41813063 -7.50331701 32.78814029 -11 37 C-12.98 36.67 -14.96 36.34 -17 36 C-17.875 33.625 -17.875 33.625 -18 30 C-16.77766156 27.41549843 -15.3042568 25.1075578 -13.74609375 22.7109375 C-12.00960212 20.01490799 -10.49686686 17.27241495 -9 14.4375 C-6.29311438 9.41042671 -3.26094466 4.68327158 0 0 Z " fill="#BEEF4C" transform="translate(128,48)"/>
<path d="M0 0 C2.00720923 0.28674418 4.0085944 0.61866701 6 1 C7.18875589 5.02683278 7.12211684 6.72126156 5.41015625 10.62890625 C4.64551904 11.95063151 3.86189496 13.26150214 3.0625 14.5625 C2.65225586 15.2541626 2.24201172 15.9458252 1.81933594 16.65844727 C0.97204445 18.08152518 0.11766767 19.50040785 -0.74365234 20.91503906 C-1.93439238 22.89112144 -3.07684331 24.88726935 -4.20703125 26.8984375 C-4.88699137 28.07871867 -5.5679293 29.25843725 -6.25 30.4375 C-7.15492187 32.01337891 -7.15492187 32.01337891 -8.078125 33.62109375 C-10 36 -10 36 -12.6171875 36.9140625 C-15 37 -15 37 -16.875 35.9375 C-18.58202813 32.99761822 -17.80589271 31.26918741 -17 28 C-15.79570458 25.33437297 -14.35595556 22.83285572 -12.875 20.3125 C-12.47410156 19.61568115 -12.07320312 18.9188623 -11.66015625 18.20092773 C-2.64087081 2.64087081 -2.64087081 2.64087081 0 0 Z " fill="#BFEF4C" transform="translate(43,69)"/>
<path d="M0 0 C2.3125 0.8125 2.3125 0.8125 3.3125 1.8125 C4.12654519 7.71885012 1.71963904 11.20719459 -1.3125 16 C-2.23897684 17.50267642 -3.16345744 19.00658544 -4.0859375 20.51171875 C-4.53549805 21.24181152 -4.98505859 21.9719043 -5.44824219 22.72412109 C-7.58650551 26.32749077 -9.37856358 30.10752019 -11.140625 33.90625 C-12.6875 35.8125 -12.6875 35.8125 -15.73828125 36.6640625 C-18.6875 36.8125 -18.6875 36.8125 -20.625 35.6875 C-22.13523951 33.02237145 -21.4919075 31.73806739 -20.6875 28.8125 C-19.74698421 26.84083908 -18.7327297 24.9035268 -17.66796875 22.99609375 C-17.05759766 21.90232422 -16.44722656 20.80855469 -15.81835938 19.68164062 C-14.85639648 17.98297852 -14.85639648 17.98297852 -13.875 16.25 C-13.24529297 15.11369141 -12.61558594 13.97738281 -11.96679688 12.80664062 C-4.58645786 -0.31998543 -4.58645786 -0.31998543 0 0 Z " fill="#BEEF4C" transform="translate(79.6875,48.1875)"/>
</svg>
