<?xml version="1.0" encoding="UTF-8"?>
<svg version="1.1" xmlns="http://www.w3.org/2000/svg" width="512" height="512">
<path d="M0 0 C1.29550026 0.39477791 1.29550026 0.39477791 2.61717224 0.79753113 C12.8934635 3.99823531 22.90446551 7.86986851 32.9296875 11.7734375 C34.99364274 12.5709215 37.05777416 13.36794966 39.12207031 14.16455078 C56.03424352 20.70255723 72.89712955 27.36561776 89.75 34.0546875 C101.81903359 38.84491269 113.90384409 43.59468353 125.9921875 48.3359375 C127.57711502 48.95782959 127.57711502 48.95782959 129.19406128 49.59228516 C141.28690439 54.33601466 153.38819925 59.05714208 165.50390625 63.7421875 C166.61604492 64.17242218 167.72818359 64.60265686 168.87402344 65.04592896 C174.18358486 67.09940944 179.49430659 69.14979522 184.80712891 71.19482422 C200.99254519 77.43529954 200.99254519 77.43529954 208.94140625 80.75 C209.98256592 81.1826416 211.02372559 81.6152832 212.09643555 82.06103516 C216.63249955 84.35284862 219.96039383 86.67416931 221.8671875 91.4609375 C222.13461304 93.95162964 222.13461304 93.95162964 222.15771484 96.77685547 C222.17047455 97.8383078 222.18323425 98.89976013 222.19638062 99.99337769 C222.19971909 101.70595261 222.19971909 101.70595261 222.203125 103.453125 C222.2097818 104.63182159 222.2164386 105.81051819 222.22329712 107.02493286 C222.23342135 109.51807088 222.23811421 112.01123598 222.23779297 114.50439453 C222.24216301 118.31458304 222.27847881 122.12361042 222.31640625 125.93359375 C222.32227505 128.35676687 222.32624402 130.7799455 222.328125 133.203125 C222.34968155 134.90962723 222.34968155 134.90962723 222.37167358 136.65060425 C222.33564291 142.90289882 222.08967325 146.71935445 217.8671875 151.4609375 C212.93535696 156.11819075 206.83985943 159.33634524 200.8671875 162.4609375 C204.59421027 164.94561935 208.59768835 166.73463258 212.68554688 168.54296875 C217.09110667 170.63549236 220.04612841 172.92044163 221.8671875 177.4609375 C222.45231284 181.52500804 222.42778212 185.54807476 222.3984375 189.6484375 C222.4022644 190.8243042 222.40609131 192.0001709 222.41003418 193.21166992 C222.41275101 195.69287982 222.40540599 198.17411848 222.38867188 200.65527344 C222.36726101 204.44791669 222.38848346 208.2386655 222.4140625 212.03125 C222.41141919 214.44531667 222.40629414 216.85938217 222.3984375 219.2734375 C222.40653442 220.40483154 222.41463135 221.53622559 222.42297363 222.7019043 C222.34903107 228.92583618 222.06465446 232.73915537 217.8671875 237.4609375 C215.9375 239.21875 215.9375 239.21875 213.9921875 240.5859375 C213.35539062 241.04226563 212.71859375 241.49859375 212.0625 241.96875 C209.34260556 243.81750387 206.60715817 245.64209657 203.8671875 247.4609375 C205.31351562 248.11449219 205.31351562 248.11449219 206.7890625 248.78125 C208.06551759 249.38193475 209.3415366 249.9835468 210.6171875 250.5859375 C211.25140625 250.86953125 211.885625 251.153125 212.5390625 251.4453125 C213.1578125 251.74179687 213.7765625 252.03828125 214.4140625 252.34375 C214.97963867 252.60559082 215.54521484 252.86743164 216.12792969 253.13720703 C219.7651778 255.90547757 221.59256826 258.55161873 222.2387085 263.04397583 C222.39702259 266.25230068 222.42142574 269.43625969 222.3984375 272.6484375 C222.4022644 273.8243042 222.40609131 275.0001709 222.41003418 276.21166992 C222.41275101 278.69287982 222.40540599 281.17411848 222.38867188 283.65527344 C222.36726101 287.44791669 222.38848346 291.2386655 222.4140625 295.03125 C222.41141919 297.44531667 222.40629414 299.85938217 222.3984375 302.2734375 C222.40653442 303.40483154 222.41463135 304.53622559 222.42297363 305.7019043 C222.35091588 311.76718733 222.21564935 315.85425345 217.8671875 320.4609375 C212.74515143 324.93941674 207.04316932 328.22576189 201.015625 331.32421875 C200.19025238 331.75285721 199.36487976 332.18149567 198.51449585 332.62312317 C189.99564979 336.99438701 181.28241996 340.86147672 172.4921875 344.6484375 C170.74565731 345.40732944 168.99940993 346.16687252 167.25341797 346.92700195 C163.48454955 348.566202 159.71373433 350.20080916 155.94140625 351.83203125 C149.50620374 354.61533248 143.0772465 357.41290769 136.6484375 360.2109375 C118.05401954 368.29982533 99.45368865 376.37387293 80.80267334 384.33151245 C67.12266229 390.17020551 53.4799895 396.09214196 39.8671875 402.0859375 C38.94941528 402.48994781 38.03164307 402.89395813 37.08605957 403.31021118 C24.7314307 408.75914506 12.46957906 414.35120593 0.421875 420.45361328 C-8.47713914 424.88959145 -18.12961165 428.73343198 -28.1328125 429.4609375 C-29.38191406 429.55568359 -29.38191406 429.55568359 -30.65625 429.65234375 C-46.17301097 430.29714213 -58.97927263 424.42245627 -72.76513672 418.07299805 C-83.47088032 413.148778 -94.29905333 408.5714541 -105.1953125 404.0859375 C-106.96150915 403.35783361 -108.72770381 402.62972486 -110.49389648 401.90161133 C-113.14088249 400.81094131 -115.78806872 399.72076555 -118.43571472 398.63169861 C-126.28087403 395.40421417 -134.11238788 392.14456718 -141.94058228 388.87619019 C-152.86294376 384.31612137 -163.79137245 379.77097678 -174.7276001 375.2442627 C-196.20586737 366.35394074 -217.6705393 357.43261059 -239.06402588 348.33978271 C-241.05167147 347.49540718 -243.04018899 346.65311358 -245.02880859 345.81103516 C-248.46433433 344.35154618 -251.89348136 342.87820549 -255.3203125 341.3984375 C-256.75213867 340.79153076 -256.75213867 340.79153076 -258.21289062 340.17236328 C-278.23767084 331.43224593 -278.23767084 331.43224593 -283.1328125 322.4609375 C-283.97212836 318.28292745 -283.92755476 314.20674776 -283.859375 309.95703125 C-283.86087051 308.16205956 -283.86087051 308.16205956 -283.86239624 306.33082581 C-283.85772779 303.80845475 -283.83834723 301.28607327 -283.80517578 298.76391602 C-283.75792375 294.90751736 -283.76406966 291.05388095 -283.77734375 287.19726562 C-283.7661911 284.74217105 -283.7519719 282.28708809 -283.734375 279.83203125 C-283.73619781 278.68190048 -283.73802063 277.53176971 -283.73989868 276.3467865 C-283.6295353 270.10560032 -283.36587887 266.18565611 -279.1328125 261.4609375 C-277.16796875 259.8515625 -277.16796875 259.8515625 -275.1953125 258.7109375 C-274.50566406 258.31003906 -273.81601562 257.90914063 -273.10546875 257.49609375 C-270.8363563 256.30537138 -268.55683648 255.29419574 -266.1328125 254.4609375 C-268.4219204 252.60103733 -270.71462753 250.76319 -273.10546875 249.03515625 C-273.79511719 248.53628906 -274.48476563 248.03742188 -275.1953125 247.5234375 C-276.17177734 246.82927734 -276.17177734 246.82927734 -277.16796875 246.12109375 C-282.85684539 241.31438884 -282.85684539 241.31438884 -283.51014709 236.92668152 C-283.66341518 233.66229302 -283.68690415 230.42030462 -283.6640625 227.15234375 C-283.6678894 225.95286606 -283.67171631 224.75338837 -283.67565918 223.51756287 C-283.67837871 220.98329834 -283.67101479 218.44900576 -283.65429688 215.91479492 C-283.63290872 212.040865 -283.65408977 208.16879378 -283.6796875 204.29492188 C-283.67704387 201.83072508 -283.67191816 199.36652944 -283.6640625 196.90234375 C-283.67620789 195.16773643 -283.67620789 195.16773643 -283.68859863 193.39808655 C-283.6159184 187.14639633 -283.4594682 183.14071082 -279.1328125 178.4609375 C-277.34936523 177.04541016 -277.34936523 177.04541016 -275.56640625 176.125 C-274.91607422 175.78339844 -274.26574219 175.44179687 -273.59570312 175.08984375 C-272.92732422 174.75855469 -272.25894531 174.42726562 -271.5703125 174.0859375 C-270.89806641 173.73144531 -270.22582031 173.37695312 -269.53320312 173.01171875 C-266.56323366 171.48396882 -264.51588593 170.4609375 -261.1328125 170.4609375 C-261.1328125 169.8009375 -261.1328125 169.1409375 -261.1328125 168.4609375 C-261.84566406 168.36039063 -262.55851562 168.25984375 -263.29296875 168.15625 C-266.53028759 167.36361898 -268.75689557 166.11577289 -271.5703125 164.3359375 C-272.47652344 163.77648437 -273.38273437 163.21703125 -274.31640625 162.640625 C-282.56229514 156.25892458 -282.56229514 156.25892458 -283.68559265 150.74993896 C-283.89270633 147.47097668 -283.91207951 144.24215884 -283.859375 140.95703125 C-283.86037201 139.76038345 -283.86136902 138.56373566 -283.86239624 137.33082581 C-283.85772779 134.80845475 -283.83834723 132.28607327 -283.80517578 129.76391602 C-283.75792375 125.90751736 -283.76406966 122.05388095 -283.77734375 118.19726562 C-283.7661911 115.74217105 -283.7519719 113.28708809 -283.734375 110.83203125 C-283.73619781 109.68190048 -283.73802063 108.53176971 -283.73989868 107.3467865 C-283.63288156 101.29483529 -283.51754885 97.0444643 -279.1328125 92.4609375 C-267.99506714 84.63022687 -254.19802073 80.36462943 -241.5703125 75.5859375 C-239.39735681 74.75502897 -237.22483872 73.92297525 -235.05273438 73.08984375 C-231.70656557 71.80659128 -228.36013346 70.52407864 -225.01229858 69.24517822 C-214.96813809 65.40787339 -204.95392768 61.4965351 -194.94610596 57.56561279 C-170.03887446 47.78547301 -145.09451772 38.10109272 -120.1328125 28.4609375 C-119.09870239 28.06138855 -118.06459229 27.6618396 -116.99914551 27.25018311 C-75.11934066 11.07226648 -75.11934066 11.07226648 -56.9453125 4.5234375 C-55.89045654 4.14050537 -54.83560059 3.75757324 -53.7487793 3.36303711 C-35.57082665 -3.08758958 -18.72820212 -5.76711885 0 0 Z " fill="#A42122" transform="translate(286.1328125,43.5390625)"/>
<path d="M0 0 C1.29550026 0.39477791 1.29550026 0.39477791 2.61717224 0.79753113 C12.8934635 3.99823531 22.90446551 7.86986851 32.9296875 11.7734375 C34.99364274 12.5709215 37.05777416 13.36794966 39.12207031 14.16455078 C56.03424352 20.70255723 72.89712955 27.36561776 89.75 34.0546875 C101.81903359 38.84491269 113.90384409 43.59468353 125.9921875 48.3359375 C127.57711502 48.95782959 127.57711502 48.95782959 129.19406128 49.59228516 C141.28690439 54.33601466 153.38819925 59.05714208 165.50390625 63.7421875 C166.61604492 64.17242218 167.72818359 64.60265686 168.87402344 65.04592896 C174.18358486 67.09940944 179.49430659 69.14979522 184.80712891 71.19482422 C200.99254519 77.43529954 200.99254519 77.43529954 208.94140625 80.75 C209.98256592 81.1826416 211.02372559 81.6152832 212.09643555 82.06103516 C216.25071279 84.15995363 219.19201087 86.2186125 221.4296875 90.3359375 C221.8671875 93.4609375 221.8671875 93.4609375 220.5546875 96.3984375 C199.6024788 122.93330707 144.96103656 136.15113852 114.49609375 149.18359375 C56.26532435 173.24457811 56.26532435 173.24457811 -0.5703125 200.3359375 C-11.32962333 205.72858725 -21.93193625 208.87556588 -34.0078125 208.9609375 C-34.75571045 208.96730225 -35.5036084 208.97366699 -36.27416992 208.98022461 C-45.6819466 208.76662257 -54.31927485 205.64637278 -62.8203125 201.8359375 C-64.66226854 201.03012471 -66.50476665 200.22555044 -68.34765625 199.421875 C-69.39937012 198.96135742 -70.45108398 198.50083984 -71.53466797 198.02636719 C-78.96506015 194.79365755 -86.42539025 191.63067108 -93.8828125 188.4609375 C-94.73758179 188.09740173 -95.59235107 187.73386597 -96.47302246 187.35931396 C-115.44910761 179.29220093 -134.49592904 171.39895146 -153.5534668 163.52667236 C-277.23506862 112.42386949 -277.23506862 112.42386949 -283.046875 100.6015625 C-283.18923934 97.05539624 -281.25231808 95.20119082 -279.1328125 92.4609375 C-267.99506714 84.63022687 -254.19802073 80.36462943 -241.5703125 75.5859375 C-239.39735681 74.75502897 -237.22483872 73.92297525 -235.05273438 73.08984375 C-231.70656557 71.80659128 -228.36013346 70.52407864 -225.01229858 69.24517822 C-214.96813809 65.40787339 -204.95392768 61.4965351 -194.94610596 57.56561279 C-170.03887446 47.78547301 -145.09451772 38.10109272 -120.1328125 28.4609375 C-119.09870239 28.06138855 -118.06459229 27.6618396 -116.99914551 27.25018311 C-75.11934066 11.07226648 -75.11934066 11.07226648 -56.9453125 4.5234375 C-55.89045654 4.14050537 -54.83560059 3.75757324 -53.7487793 3.36303711 C-35.57082665 -3.08758958 -18.72820212 -5.76711885 0 0 Z " fill="#D72F27" transform="translate(286.1328125,43.5390625)"/>
<path d="M0 0 C0.33 0 0.66 0 1 0 C1.10155026 7.29561453 1.17152891 14.59104629 1.21972656 21.88720703 C1.23982241 24.36839611 1.26710384 26.84953795 1.30175781 29.33056641 C1.35036294 32.90018382 1.37298972 36.46917416 1.390625 40.0390625 C1.41127014 41.14553131 1.43191528 42.25200012 1.45318604 43.39199829 C1.45494017 49.43388441 1.33032438 53.40404823 -3 58 C-8.12128764 62.47902004 -13.82427479 65.7649563 -19.8515625 68.86328125 C-20.67693512 69.29191971 -21.50230774 69.72055817 -22.35269165 70.16218567 C-30.87153771 74.53344951 -39.58476754 78.40053922 -48.375 82.1875 C-50.12153019 82.94639194 -51.86777757 83.70593502 -53.61376953 84.46606445 C-57.38263795 86.1052645 -61.15345317 87.73987166 -64.92578125 89.37109375 C-71.36098376 92.15439498 -77.789941 94.95197019 -84.21875 97.75 C-102.81316796 105.83888783 -121.41349885 113.91293543 -140.06451416 121.87057495 C-153.74452521 127.70926801 -167.387198 133.63120446 -181 139.625 C-181.91777222 140.02901031 -182.83554443 140.43302063 -183.78112793 140.84927368 C-196.1357568 146.29820756 -208.39760844 151.89026843 -220.4453125 157.99267578 C-229.34432664 162.42865395 -238.99679915 166.27249448 -249 167 C-250.24910156 167.09474609 -250.24910156 167.09474609 -251.5234375 167.19140625 C-267.04019847 167.83620463 -279.84646013 161.96151877 -293.63232422 155.61206055 C-304.33806782 150.6878405 -315.16624083 146.1105166 -326.0625 141.625 C-327.82869665 140.89689611 -329.59489131 140.16878736 -331.36108398 139.44067383 C-334.00806999 138.35000381 -336.65525622 137.25982805 -339.30290222 136.17076111 C-347.14806153 132.94327667 -354.97957538 129.68362968 -362.80776978 126.41525269 C-373.73013126 121.85518387 -384.65855995 117.31003928 -395.5947876 112.7833252 C-417.07305487 103.89300324 -438.5377268 94.97167309 -459.93121338 85.87884521 C-461.91885897 85.03446968 -463.90737649 84.19217608 -465.89599609 83.35009766 C-469.33152183 81.89060868 -472.76066886 80.41726799 -476.1875 78.9375 C-477.61932617 78.33059326 -477.61932617 78.33059326 -479.08007812 77.71142578 C-499.11319878 68.96766812 -499.11319878 68.96766812 -504 60 C-504.79456244 55.89034743 -504.70098157 51.89523933 -504.5859375 47.72265625 C-504.57744781 46.5561705 -504.56895813 45.38968475 -504.56021118 44.18785095 C-504.52674397 40.47844356 -504.45146898 36.77124542 -504.375 33.0625 C-504.34489213 30.54104712 -504.31751778 28.01956001 -504.29296875 25.49804688 C-504.2269742 19.33128315 -504.12668959 13.16579944 -504 7 C-503.40227783 7.7643335 -502.80455566 8.52866699 -502.1887207 9.31616211 C-496.40769835 16.40492717 -489.51683776 20.0869292 -481.3125 23.9375 C-480.13389404 24.49687256 -478.95528809 25.05624512 -477.7409668 25.63256836 C-464.57898656 31.82341698 -451.12879838 37.33370047 -437.6730957 42.84736633 C-428.22606525 46.72021899 -418.80657601 50.65883975 -409.38479614 54.59262085 C-394.06997387 60.98504133 -378.74496904 67.3526444 -363.41137695 73.69989014 C-349.36405128 79.5157588 -335.32719077 85.35587311 -321.3125 91.25 C-320.13960922 91.74315704 -320.13960922 91.74315704 -318.94302368 92.24627686 C-310.67625689 95.72514999 -302.42427109 99.23483336 -294.203125 102.8203125 C-293.50676437 103.12376587 -292.81040375 103.42721924 -292.09294128 103.73986816 C-288.84104369 105.15824826 -285.59182473 106.58228687 -282.34692383 108.01660156 C-266.40456306 115.00646095 -249.70372117 116.98119656 -232.9453125 111.0390625 C-225.09370368 107.94520573 -217.55962789 104.07707806 -210.00195312 100.33422852 C-199.33091422 95.0584981 -188.53474469 90.13641428 -177.625 85.375 C-176.77272827 85.0027832 -175.92045654 84.63056641 -175.0423584 84.24707031 C-158.76288926 77.14705654 -142.43130096 70.16715145 -126.10205078 63.18261719 C-81.42758978 44.09545053 -81.42758978 44.09545053 -37.00488281 24.43206787 C-35.66154399 23.82643115 -34.3173505 23.22268532 -32.97216797 22.62115479 C-13.6106248 14.77634191 -13.6106248 14.77634191 0 0 Z " fill="#A42021" transform="translate(507,306)"/>
<path d="M0 0 C0.33 0 0.66 0 1 0 C1.10155026 7.29561453 1.17152891 14.59104629 1.21972656 21.88720703 C1.23982241 24.36839611 1.26710384 26.84953795 1.30175781 29.33056641 C1.35036294 32.90018382 1.37298972 36.46917416 1.390625 40.0390625 C1.41127014 41.14553131 1.43191528 42.25200012 1.45318604 43.39199829 C1.45498761 49.59729482 1.16972252 53.28495725 -3 58 C-9.45137236 64.20711104 -18.12091571 68.5066386 -26.37890625 71.74609375 C-30.67942968 73.43956412 -34.91205549 75.26183869 -39.12890625 77.15234375 C-40.11309036 77.59353546 -40.11309036 77.59353546 -41.11715698 78.04364014 C-42.52264663 78.67440031 -43.9279859 79.30549564 -45.33319092 79.93688965 C-60.77856611 86.86944217 -76.30613738 93.60001258 -91.875 100.25 C-154.29091321 126.64800636 -154.29091321 126.64800636 -215.77978516 155.1027832 C-228.57876309 161.29398231 -240.57270042 166.11659805 -254.9375 166.375 C-256.06768555 166.43107422 -256.06768555 166.43107422 -257.22070312 166.48828125 C-269.71466313 166.67368214 -281.79232611 160.41628601 -292.875 155.25 C-304.72555902 149.8171271 -316.69838535 144.71932771 -328.75 139.75 C-329.61686432 139.39237579 -330.48372864 139.03475159 -331.37686157 138.66629028 C-335.82099639 136.8337371 -340.26636828 135.00420946 -344.71240234 133.17626953 C-353.16976573 129.69772679 -361.61578155 126.19179082 -370.0625 122.6875 C-371.74723075 121.98876393 -373.43196384 121.2900335 -375.11669922 120.59130859 C-379.48397888 118.77981739 -383.85091894 116.96750909 -388.2177124 115.15484619 C-390.11678982 114.36659471 -392.01592141 113.57847376 -393.9151001 112.79046631 C-401.06971819 109.82181108 -408.22312103 106.85024839 -415.375 103.875 C-416.38608826 103.45438293 -417.39717651 103.03376587 -418.43890381 102.60040283 C-433.28780138 96.41914875 -448.0995474 90.15674493 -462.85498047 83.75537109 C-464.15702079 83.19190708 -465.45926049 82.62890352 -466.76171875 82.06640625 C-467.37627426 81.80097015 -467.99082977 81.53553406 -468.62400818 81.26205444 C-473.72865569 79.07645925 -478.90068467 77.10030266 -484.11474609 75.19262695 C-491.75632587 72.03396075 -499.78391818 67.35677901 -504 60 C-504.80808566 55.89349413 -504.70095804 51.89438574 -504.5859375 47.72265625 C-504.57744781 46.5561705 -504.56895813 45.38968475 -504.56021118 44.18785095 C-504.52674397 40.47844356 -504.45146898 36.77124542 -504.375 33.0625 C-504.34489213 30.54104712 -504.31751778 28.01956001 -504.29296875 25.49804688 C-504.2269742 19.33128315 -504.12668959 13.16579944 -504 7 C-503.40429199 7.7633667 -502.80858398 8.5267334 -502.19482422 9.31323242 C-496.7990288 15.91843027 -490.53398286 19.60907013 -482.875 23.1875 C-481.81861328 23.68741455 -480.76222656 24.1873291 -479.67382812 24.70239258 C-461.04193841 33.37705979 -441.97289242 41.11031852 -423 49 C-421.20506221 49.74719485 -419.4101399 50.49442687 -417.61523438 51.24169922 C-406.59256896 55.82875997 -395.56107692 60.39436179 -384.52746582 64.95501709 C-370.01258908 70.95620532 -355.5038387 76.97218685 -341 83 C-340.07568176 83.3840802 -339.15136353 83.7681604 -338.19903564 84.16387939 C-332.45174411 86.55264307 -326.70611978 88.94536098 -320.96234131 91.34255981 C-319.15483709 92.09650492 -317.34695363 92.84954171 -315.53863525 93.60153198 C-300.12818371 100.01187837 -300.12818371 100.01187837 -292.64697266 103.42578125 C-291.76213699 103.82953979 -290.87730133 104.23329834 -289.96565247 104.64929199 C-288.29497773 105.41611219 -286.62698057 106.18880861 -284.96244812 106.96887207 C-279.43403518 109.51375304 -273.87388718 111.41255556 -268 113 C-267.32524124 113.18622925 -266.65048248 113.3724585 -265.95527649 113.56433105 C-250.22146711 117.0700921 -234.2697016 112.42786622 -220.3828125 105.23046875 C-212.85863399 101.40424221 -205.25168082 97.79654241 -197.5625 94.3125 C-196.88713196 94.00552185 -196.21176392 93.6985437 -195.51593018 93.38226318 C-178.9151928 85.84872866 -162.13863401 78.72295587 -145.37149048 71.56996155 C-143.81281754 70.90497902 -143.81281754 70.90497902 -142.22265625 70.2265625 C-140.67087173 69.56454079 -140.67087173 69.56454079 -139.08773804 68.8891449 C-129.14133179 64.6414815 -119.2226595 60.33144357 -109.3125 56 C-108.11756927 55.47779373 -108.11756927 55.47779373 -106.89849854 54.94503784 C-103.79017565 53.58653291 -100.68185842 52.22801519 -97.57373047 50.86906433 C-90.76124762 47.89200076 -83.93763261 44.94097634 -77.11273193 41.99252319 C-63.67621857 36.18561952 -50.26936671 30.31447818 -36.91894531 24.31201172 C-35.07332003 23.48243742 -33.22646744 22.65558355 -31.37792969 21.83251953 C-12.98936327 14.18924691 -12.98936327 14.18924691 0 0 Z " fill="#A42122" transform="translate(507,137)"/>
<path d="M0 0 C14.0775346 5.65269541 14.0775346 5.65269541 18 13 C17.71534819 17.36466116 15.55154713 19.77290906 12.5625 22.75 C-12.9439429 43.8861801 -51.63661874 54.61421154 -81.80683899 67.49606323 C-139.14323706 91.61810598 -139.14323706 91.61810598 -195.58203125 117.7265625 C-214.47118222 126.99567606 -234.04666492 135.19485336 -255.34573364 128.37646484 C-261.53100552 126.21887911 -267.463707 123.34958803 -273.40815735 120.6124115 C-285.75925499 114.92836749 -298.24809598 109.62919882 -310.8125 104.4375 C-312.91810815 103.56413808 -315.02357407 102.69043321 -317.12890625 101.81640625 C-322.42284875 99.61957346 -327.71848659 97.42686317 -333.01470947 95.23553467 C-337.52502977 93.36882956 -342.03403774 91.49896404 -346.54296875 89.62890625 C-348.21418829 88.93586175 -349.88541222 88.24282781 -351.55664062 87.54980469 C-352.37350342 87.21106323 -353.19036621 86.87232178 -354.03198242 86.52331543 C-356.50625154 85.49740792 -358.98064738 84.47180665 -361.45507812 83.44628906 C-382.64960005 74.66178379 -403.83829384 65.86331982 -425 57 C-426.14650024 56.5198645 -426.14650024 56.5198645 -427.31616211 56.0300293 C-435.91029533 52.42779714 -444.4814029 48.77794418 -453 45 C-454.06508789 44.52771973 -455.13017578 44.05543945 -456.22753906 43.56884766 C-459.3915406 42.15137116 -462.54144917 40.70682813 -465.6875 39.25 C-466.60281494 38.83806396 -467.51812988 38.42612793 -468.46118164 38.00170898 C-475.77829882 34.54038372 -482.67978025 30.00037888 -486.8125 22.875 C-487.08286246 18.72944229 -485.57117127 17.21294862 -483 14 C-480.67466406 12.27373483 -478.21211757 10.97851241 -475.625 9.6875 C-474.97789062 9.34138672 -474.33078125 8.99527344 -473.6640625 8.63867188 C-468.6245721 6.03256444 -464.44263381 4.25167335 -458.7565918 5.99365234 C-457.58265869 6.51910645 -456.40872559 7.04456055 -455.19921875 7.5859375 C-454.5429953 7.87381134 -453.88677185 8.16168518 -453.21066284 8.45828247 C-451.78298903 9.08634759 -450.358294 9.72121792 -448.93630981 10.36206055 C-445.84069797 11.75642807 -442.73045778 13.11663098 -439.62052917 14.47869873 C-437.96604055 15.20340271 -436.31225459 15.92971274 -434.65913391 16.65753174 C-425.35247608 20.74740342 -415.96059238 24.62610261 -406.5625 28.5 C-403.95071774 29.57899543 -401.33919737 30.6586231 -398.72767639 31.73825073 C-396.99953017 32.45261165 -395.27128965 33.16674449 -393.54295349 33.88064575 C-384.28717985 37.70459366 -375.0446983 41.56025755 -365.80255127 45.41699219 C-357.16446522 49.02112198 -348.52204584 52.61434947 -339.87109375 56.1875 C-323.24946374 63.05516812 -306.64797673 69.96016887 -290.125 77.0625 C-289.3971933 77.375289 -288.6693866 77.688078 -287.91952515 78.01034546 C-284.49375595 79.48307578 -281.06850892 80.95701616 -277.64355469 82.43164062 C-272.68260394 84.56706997 -267.72018433 86.69864568 -262.75 88.8125 C-262.03602051 89.12002197 -261.32204102 89.42754395 -260.58642578 89.74438477 C-245.25805524 96.2387833 -229.01129663 95.71085258 -213.59375 89.6640625 C-206.61703409 86.7617191 -199.83566609 83.44371556 -193.04418945 80.13720703 C-165.51705981 66.7534278 -137.25415342 54.92155085 -109.11328125 42.8984375 C-83.73159867 32.05348224 -58.40355402 21.08311448 -33.125 10 C-31.80468781 9.42190079 -31.80468781 9.42190079 -30.45770264 8.8321228 C-27.97363856 7.74398691 -25.4905552 6.65364689 -23.0078125 5.5625 C-21.91868561 5.08566521 -21.91868561 5.08566521 -20.80755615 4.59919739 C-17.7035656 3.23199191 -14.65784267 1.82721179 -11.62841797 0.29736328 C-7.41494365 -1.78236944 -4.44045705 -1.26229443 0 0 Z " fill="#D72E26" transform="translate(490,208)"/>
<path d="M0 0 C11.55351137 4.70360344 11.55351137 4.70360344 14.875 9 C16 12 16 12 15.8125 14.875 C1.33923017 39.82891351 -49.67221713 51.91973693 -75.2109375 62.81640625 C-136.88955785 88.64023433 -136.88955785 88.64023433 -197.546875 116.7265625 C-211.83677038 123.77845195 -224.67801251 129.34096727 -240.8125 129.5625 C-242.06546875 129.58497803 -242.06546875 129.58497803 -243.34375 129.60791016 C-255.07747651 129.41219455 -265.58879321 124.0122427 -276.08743286 119.2612915 C-289.64429515 113.13642267 -303.31114572 107.29808287 -317.0625 101.625 C-317.9202301 101.27101135 -318.77796021 100.91702271 -319.66168213 100.55230713 C-324.03779461 98.74715945 -328.41507294 96.94486079 -332.79296875 95.14404297 C-341.22300601 91.67510623 -349.64237845 88.18041759 -358.0625 84.6875 C-359.74251134 83.99079998 -361.42252437 83.29410403 -363.10253906 82.59741211 C-368.40215076 80.39937779 -373.70118729 78.19995967 -379 76 C-380.46771851 75.39067627 -380.46771851 75.39067627 -381.96508789 74.76904297 C-396.98505521 68.53261912 -411.99937615 62.28282642 -427 56 C-428.14650024 55.5198645 -428.14650024 55.5198645 -429.31616211 55.0300293 C-437.91038434 51.42775983 -446.47879857 47.77219879 -455 44 C-456.05977051 43.53303711 -457.11954102 43.06607422 -458.21142578 42.58496094 C-482.42578063 31.8157044 -482.42578063 31.8157044 -488 24 C-489.14086294 20.40819228 -489.22947401 19.47890228 -487.5625 16 C-484.44792161 12.35366432 -481.2839136 10.1069575 -477 8 C-475.82912842 7.40888428 -474.65825684 6.81776855 -473.4519043 6.20874023 C-468.95013607 4.55766401 -466.28016793 5.43306086 -461.97447205 7.27540588 C-461.11793533 7.67436569 -460.26139862 8.0733255 -459.37890625 8.484375 C-458.45884293 8.88619492 -457.5387796 9.28801483 -456.59083557 9.70201111 C-453.57006223 11.0271753 -450.56715605 12.38873842 -447.5625 13.75 C-445.44715925 14.68382877 -443.3304383 15.61453682 -441.21240234 16.54223633 C-436.88599921 18.43838583 -432.56446099 20.34502889 -428.24560547 22.25830078 C-420.0922557 25.85492067 -411.86740463 29.27183258 -403.6255188 32.65951538 C-401.10707675 33.6948684 -398.59029072 34.7341499 -396.07397461 35.7746582 C-392.72298288 37.16020589 -389.37151774 38.54459498 -386.01953125 39.92773438 C-305.05872832 73.34200693 -305.05872832 73.34200693 -276.62036133 85.85449219 C-259.49293008 93.5776441 -259.49293008 93.5776441 -241.1875 96.3125 C-240.0437793 96.35600586 -240.0437793 96.35600586 -238.87695312 96.40039062 C-225.58529659 96.54121502 -213.68988655 91.34478677 -202.00289917 85.60635376 C-199.03469717 84.15028438 -196.05147037 82.72619473 -193.0690155 81.29960632 C-191.54363779 80.56976874 -190.01890513 79.83858143 -188.49482727 79.10603333 C-167.20254376 68.8775678 -145.4201821 59.71469116 -123.70410156 50.43408203 C-92.45305425 37.07718096 -61.25153865 23.59947526 -30.1875 9.8125 C-29.08140884 9.3223793 -29.08140884 9.3223793 -27.95297241 8.82235718 C-19.01901753 4.88094117 -19.01901753 4.88094117 -10.25390625 0.58203125 C-6.05214163 -1.4608435 -4.4751291 -1.34253873 0 0 Z " fill="#D72E26" transform="translate(492,292)"/>
<path d="M0 0 C0.77543152 -0.01035278 1.55086304 -0.02070557 2.34979248 -0.03137207 C19.92574074 -0.21605479 42.9175178 2.24718231 56.8828125 13.96484375 C60.16314592 17.20396695 62.17407428 19.91944569 62.9375 24.5 C62.15254703 29.20971782 60.21706638 32.04300268 56.51953125 35.0703125 C51.17759904 38.83330191 45.58571117 41.34959228 39.4375 43.5 C38.52484375 43.83257812 37.6121875 44.16515625 36.671875 44.5078125 C10.83584175 52.43335893 -24.41623432 52.22035363 -48.8125 39.9375 C-54.50573703 36.8091096 -59.81237799 33.57921708 -62.5625 27.5 C-63.1093612 23.82821764 -62.76367329 21.9297793 -61.1875 18.5625 C-55.49953864 10.95859376 -46.42373388 7.00870898 -37.5625 4.5 C-36.36753906 4.12746094 -35.17257813 3.75492187 -33.94140625 3.37109375 C-22.76207519 0.26098412 -11.5200329 0.06983062 0 0 Z " fill="#FEFDFD" transform="translate(152.5625,117.5)"/>
<path d="M0 0 C0.79100601 0.28458069 1.58201202 0.56916138 2.39698792 0.86236572 C3.60426796 1.31914703 3.60426796 1.31914703 4.8359375 1.78515625 C5.58088974 2.06405701 6.32584198 2.34295776 7.09336853 2.63031006 C9.41896397 3.51507859 11.73551861 4.42058152 14.05078125 5.33203125 C14.90539444 5.66632141 15.76000763 6.00061157 16.64051819 6.34503174 C19.35232415 7.40629463 22.06291221 8.47062731 24.7734375 9.53515625 C27.44198891 10.5807134 30.11078749 11.6256367 32.7796936 12.67028809 C34.53649736 13.3586078 36.29282947 14.04813256 38.04867554 14.7388916 C42.39941245 16.4490573 46.75607119 18.13937363 51.12939453 19.79101562 C51.96523575 20.10887024 52.80107697 20.42672485 53.6622467 20.75421143 C55.24584955 21.35538228 56.83157884 21.95098986 58.41966248 22.54022217 C63.72406098 24.56140321 63.72406098 24.56140321 64.8359375 26.78515625 C63.31258682 27.39449652 61.78923596 28.00383635 60.2658844 28.61317444 C58.88562241 29.16528131 57.50536332 29.71739542 56.12510681 30.26951599 C52.23215278 31.82673517 48.33914548 33.38382099 44.44604492 34.94067383 C37.36762961 37.77147704 30.28934102 40.60258295 23.21331787 43.43936157 C20.49884297 44.52757355 17.78412629 45.61518168 15.06939697 46.70275879 C13.80132549 47.21098659 12.53337853 47.7195252 11.26556396 48.22839355 C8.41777472 49.37137928 5.56838875 50.50941983 2.71337891 51.63427734 C0.96927392 52.33186015 -0.76614958 53.05253921 -2.48291016 53.81494141 C-9.99132289 57.04011699 -15.274944 55.23306046 -22.5234375 52.44921875 C-24.99121684 51.44520005 -27.45379029 50.43208242 -29.9140625 49.41015625 C-31.23123375 48.87144303 -32.54886876 48.33386246 -33.86694336 47.79736328 C-35.90570396 46.96747442 -37.94419395 46.13699373 -39.98130798 45.30307007 C-47.20126706 42.34917132 -54.46146201 39.50081246 -61.7265625 36.66015625 C-64.01958706 35.76186121 -66.31256 34.86343435 -68.60546875 33.96484375 C-69.56138916 33.59085449 -70.51730957 33.21686523 -71.50219727 32.83154297 C-74.06020193 31.82598413 -76.61322105 30.8087331 -79.1640625 29.78515625 C-77.50625725 26.46954575 -73.80637315 25.92815048 -70.484375 24.6953125 C-69.29665749 24.24444527 -69.29665749 24.24444527 -68.08494568 23.7844696 C-66.37773982 23.13694242 -64.66937247 22.49247107 -62.95999146 21.85070801 C-58.49248605 20.17296247 -54.03348971 18.47292391 -49.57421875 16.7734375 C-48.6841362 16.43472626 -47.79405365 16.09601501 -46.8769989 15.74703979 C-38.02374079 12.36887572 -29.24966607 8.81498873 -20.49072266 5.19946289 C-18.56104217 4.40301974 -16.62833417 3.61384975 -14.69189453 2.83398438 C-13.10523859 2.17566161 -11.53427594 1.47656225 -9.99169922 0.72070312 C-6.17541608 -1.04541759 -3.86117405 -1.40897903 0 0 Z " fill="#AD2524" transform="translate(376.1640625,112.21484375)"/>
<path d="M0 0 C-1.62466971 5.00124231 -4.57086176 8.85631699 -7.625 13.0625 C-8.72125474 14.59288922 -9.81630451 16.1241423 -10.91015625 17.65625 C-11.4427002 18.40132812 -11.97524414 19.14640625 -12.52392578 19.9140625 C-14.42217057 22.59659698 -16.25099979 25.32076996 -18.0625 28.0625 C-18.67738281 28.98804688 -19.29226563 29.91359375 -19.92578125 30.8671875 C-21.06766748 32.5918443 -22.2079912 34.3175519 -23.34130859 36.04785156 C-24.79998259 38.26849014 -26.27392641 40.47839864 -27.75 42.6875 C-28.21027588 43.39592041 -28.67055176 44.10434082 -29.14477539 44.83422852 C-29.58684326 45.49092529 -30.02891113 46.14762207 -30.484375 46.82421875 C-30.87334961 47.41291748 -31.26232422 48.00161621 -31.66308594 48.6081543 C-33.48237415 50.50219413 -34.35914335 50.84117689 -37 51 C-39.48372475 50.22792047 -41.76316824 49.38747368 -44.1484375 48.37890625 C-44.86167175 48.08766373 -45.57490601 47.7964212 -46.30975342 47.49635315 C-48.66948702 46.5293009 -51.02212348 45.54610524 -53.375 44.5625 C-55.01511281 43.88635881 -56.65558065 43.21107821 -58.29638672 42.53662109 C-63.53864083 40.3761125 -68.77043732 38.19102282 -74 36 C-74.89307861 35.62595032 -75.78615723 35.25190063 -76.70629883 34.86651611 C-84.50934255 31.59650016 -92.30959549 28.31992691 -100.09912109 25.01782227 C-100.87628479 24.68862289 -101.65344849 24.35942352 -102.4541626 24.02024841 C-103.90704998 23.4044262 -105.35951062 22.78759582 -106.8114624 22.16957092 C-109.52207577 21.02044745 -112.20542126 19.93152625 -115 19 C-115 18.34 -115 17.68 -115 17 C-114.46036621 16.93530518 -113.92073242 16.87061035 -113.36474609 16.80395508 C-99.95585375 15.17503333 -86.64183712 13.1658112 -73.32495117 10.9074707 C-62.10581581 9.00600661 -50.86934959 7.24900727 -39.61816406 5.54882812 C-36.22699346 5.03443194 -32.8366382 4.51503251 -29.44651794 3.99377441 C-26.40146291 3.52583631 -23.35610759 3.05987223 -20.31069946 2.59423828 C-18.8206643 2.36608809 -17.33073352 2.13725507 -15.84091187 1.90771484 C-13.76014502 1.58739394 -11.67896225 1.26992104 -9.59765625 0.953125 C-7.79566772 0.67710449 -7.79566772 0.67710449 -5.95727539 0.39550781 C-3 0 -3 0 0 0 Z " fill="#FEFCFC" transform="translate(300,167)"/>
<path d="M0 0 C4.96980012 1.5829353 9.8125425 3.29300445 14.62890625 5.296875 C15.60150391 5.69777344 16.57410156 6.09867187 17.57617188 6.51171875 C19.57595455 7.34092883 21.57077212 8.18221046 23.56054688 9.03515625 C34.47801138 13.48328047 41.58493032 10.69962165 52.3125 6.9375 C54.45302766 6.19258109 56.5948983 5.45150675 58.73828125 4.71484375 C59.67712158 4.38605225 60.61596191 4.05726074 61.58325195 3.71850586 C64 3 64 3 67 3 C65.16468194 8.75622482 63.09912473 14.35827453 60.76953125 19.93359375 C59.883671 21.94486874 59.883671 21.94486874 60 24 C70.23 27.96 80.46 31.92 91 36 C91 36.33 91 36.66 91 37 C70.21 39.475 70.21 39.475 49 42 C44.545 52.89 44.545 52.89 40 64 C39.34 64 38.68 64 38 64 C37.32616988 62.24784999 36.73484981 60.46394615 36.17578125 58.671875 C33.25188898 51.11258393 30.17737005 43.38313515 23 39 C10.61359254 34.62784425 -4.00525212 35.16820798 -16.99111938 35.19819641 C-18.33029922 35.19785652 -18.33029922 35.19785652 -19.6965332 35.19750977 C-20.87443169 35.21068993 -20.87443169 35.21068993 -22.0761261 35.22413635 C-24 35 -24 35 -26 33 C-21.35746988 31.28485254 -16.71267928 29.57603173 -12.06567383 27.87304688 C-10.48495686 27.29275287 -8.90487297 26.71073134 -7.32543945 26.12695312 C-5.05584072 25.28842089 -2.78404208 24.45611592 -0.51171875 23.625 C0.54780754 23.23127197 0.54780754 23.23127197 1.6287384 22.82958984 C4.56071715 21.76304997 6.85349781 21 10 21 C8.89835882 18.76955389 7.79378106 16.54064354 6.6875 14.3125 C6.37876953 13.68666016 6.07003906 13.06082031 5.75195312 12.41601562 C4.34989834 9.59714758 2.9116506 6.85541013 1.26953125 4.16796875 C0 2 0 2 0 0 Z " fill="#FEFBFB" transform="translate(229,68)"/>
<path d="M0 0 C16.08347951 6.04151007 32.11072711 12.18245678 48.0625 18.5625 C49.2154808 19.02272552 49.2154808 19.02272552 50.39175415 19.49224854 C52.58627928 20.36893034 54.77969395 21.24832339 56.97265625 22.12890625 C57.62562683 22.38993637 58.27859741 22.65096649 58.95135498 22.91990662 C62.03548809 24.16311059 65.05563328 25.45205435 68 27 C65.6694235 29.3305765 63.81087928 30.00481648 60.7434082 31.19897461 C59.09578239 31.84490822 59.09578239 31.84490822 57.41487122 32.50389099 C56.22222153 32.9653804 55.02957184 33.42686981 53.80078125 33.90234375 C51.93107304 34.63334042 50.06136516 35.36433792 48.19167614 36.09538364 C45.56610515 37.12041725 42.93864233 38.14055533 40.31121826 39.16082764 C35.73395781 40.93948337 31.15985773 42.72625274 26.585495 44.51234436 C24.15096274 45.46235875 21.71577694 46.41070045 19.27986145 47.35716248 C12.53621426 49.97622686 12.53621426 49.97622686 5.88354492 52.81469727 C3 54 3 54 0 54 C0 36.18 0 18.36 0 0 Z " fill="#791514" transform="translate(373,111)"/>
</svg>
