<?xml version="1.0" encoding="UTF-8"?>
<svg version="1.1" xmlns="http://www.w3.org/2000/svg" width="247" height="204">
<path d="M0 0 C81.51 0 163.02 0 247 0 C247 67.32 247 134.64 247 204 C165.49 204 83.98 204 0 204 C0 136.68 0 69.36 0 0 Z " fill="#418DFC" transform="translate(0,0)"/>
<path d="M0 0 C1.18888824 -0.00571014 2.37777649 -0.01142029 3.60269165 -0.01730347 C4.9138797 -0.01842133 6.22506775 -0.01953918 7.57598877 -0.02069092 C8.965547 -0.02531836 10.35510396 -0.03034292 11.74465942 -0.03573608 C15.52581451 -0.04887131 19.30695184 -0.0553075 23.08812618 -0.05974674 C25.4504082 -0.06267633 27.81268534 -0.06678097 30.1749649 -0.07125092 C37.56571199 -0.08493028 44.95644796 -0.09459416 52.34720683 -0.09845281 C60.87887305 -0.10293147 69.41037888 -0.12046852 77.94199634 -0.1494534 C84.53570978 -0.17107667 91.12937813 -0.18115747 97.72312665 -0.18249393 C101.66145567 -0.18354172 105.59963403 -0.18944358 109.53792572 -0.20731354 C113.2446746 -0.22380492 116.95115976 -0.22594467 120.65793228 -0.21717453 C122.66303678 -0.21603821 124.66813257 -0.2297483 126.67318726 -0.243927 C127.8733548 -0.23835785 129.07352234 -0.2327887 130.31005859 -0.22705078 C131.34908703 -0.22851734 132.38811546 -0.2299839 133.45862961 -0.2314949 C138.04235602 0.34635068 141.33951616 2.06132651 144.57696533 5.32794189 C146.83485306 8.79420876 148.28655683 12.27365242 149.72149658 16.14044189 C150.01346924 16.91573242 150.30544189 17.69102295 150.60626221 18.48980713 C151.55434922 21.03513776 152.48239657 23.58721751 153.40899658 26.14044189 C153.74463623 27.04681396 154.08027588 27.95318604 154.42608643 28.88702393 C155.44307359 31.65142835 156.43016115 34.42482402 157.40899658 37.20294189 C157.88139771 38.48588135 157.88139771 38.48588135 158.36334229 39.79473877 C160.30302747 45.45872987 161.09620298 50.29570971 159.40899658 56.14044189 C156.83122723 60.47715975 153.20265585 62.87064301 148.97149658 65.45294189 C148.36185059 65.83466553 147.75220459 66.21638916 147.12408447 66.60968018 C145.22456008 67.79575094 143.31746284 68.96882574 141.40899658 70.14044189 C140.19776822 70.89127497 138.98682275 71.64256462 137.77618408 72.39434814 C134.66189245 74.32311275 131.5390985 76.23740882 128.40899658 78.14044189 C127.52341064 78.71020752 126.63782471 79.27997314 125.72540283 79.86700439 C123.40899658 81.14044189 123.40899658 81.14044189 120.40899658 81.14044189 C120.40899658 81.80044189 120.40899658 82.46044189 120.40899658 83.14044189 C118.33282198 84.6286196 116.26727509 85.99035472 114.09649658 87.32794189 C112.80994242 88.1337785 111.52348526 88.93977 110.23712158 89.74591064 C109.26935791 90.3479834 109.26935791 90.3479834 108.28204346 90.96221924 C104.74937728 93.18440993 101.28542072 95.51545695 97.81134033 97.82794189 C95.31145795 99.19373129 93.21510956 99.74028318 90.40899658 100.14044189 C90.40899658 100.80044189 90.40899658 101.46044189 90.40899658 102.14044189 C102.28899658 102.14044189 114.16899658 102.14044189 126.40899658 102.14044189 C124.07164398 113.82720489 111.05505472 122.25506193 102.15899658 129.39044189 C97.49282297 133.14744701 93.13171008 137.15113367 88.78399658 141.26544189 C73.05321485 156.14066556 73.05321485 156.14066556 64.57696533 156.46856689 C59.69689589 155.72996179 56.27429419 152.27227478 52.78399658 149.01544189 C49.26529472 145.78866196 45.6896599 142.69768574 41.97149658 139.70294189 C37.1395073 135.7923065 32.53506704 131.68279805 27.95977783 127.47637939 C25.18227816 124.93281921 22.35266346 122.45815734 19.50665283 119.99200439 C16.91645925 117.70568827 14.38594233 115.35795103 11.84649658 113.01544189 C8.74811973 110.17598233 5.69038221 107.51388996 2.22149658 105.14044189 C1.29337158 104.48044189 0.36524658 103.82044189 -0.59100342 103.14044189 C-0.59100342 102.48044189 -0.59100342 101.82044189 -0.59100342 101.14044189 C1.07037354 99.9229126 1.07037354 99.9229126 3.39727783 98.56622314 C4.24378906 98.06687256 5.09030029 97.56752197 5.96246338 97.05303955 C6.87294434 96.52500732 7.78342529 95.9969751 8.72149658 95.45294189 C10.56845828 94.36412805 12.41481746 93.27429148 14.26055908 92.18341064 C15.1529126 91.65795654 16.04526611 91.13250244 16.96466064 90.59112549 C23.08196261 86.96058131 29.03086396 83.08248409 34.90899658 79.07794189 C38.01507899 76.99078599 41.16810602 75.14798352 44.47149658 73.39044189 C49.74979094 70.56852829 54.78826221 67.44908348 59.84356689 64.25274658 C66.44794187 60.08729293 73.13981795 56.07403505 79.84625244 52.07550049 C80.65715332 51.59161865 81.4680542 51.10773682 82.30352783 50.60919189 C83.02387207 50.18057861 83.74421631 49.75196533 84.48638916 49.31036377 C86.15362546 48.29583725 87.78512494 47.22302299 89.40899658 46.14044189 C31.49399658 45.64544189 31.49399658 45.64544189 -27.59100342 45.14044189 C-24.45176819 34.67632447 -21.1871061 24.37807518 -17.21600342 14.20294189 C-16.81429932 13.12000854 -16.81429932 13.12000854 -16.40447998 12.01519775 C-13.31683389 4.30599037 -8.49296529 0.02435008 0 0 Z " fill="#BBD7FD" transform="translate(57.59100341796875,20.85955810546875)"/>
<path d="M0 0 C14.52 0 29.04 0 44 0 C41 2 41 2 37.6875 3.625 C29.93146218 8.07501908 26.86529177 16.01361734 24.1875 24.125 C23.43654852 26.32437472 22.6809054 28.52215032 21.921875 30.71875 C21.710504 31.33303864 21.499133 31.94732727 21.28135681 32.58023071 C19.20323049 38.55419435 16.92295814 44.44539856 14.640625 50.34375 C13.46500289 53.41252639 12.29174372 56.48219564 11.11929321 59.55218506 C10.33851987 61.58229657 9.54957554 63.60928655 8.75204468 65.63287354 C1.3475654 83.53922395 1.3475654 83.53922395 2.82641602 102.41040039 C7.49218465 111.70370377 19.23350993 119.25184468 27.15234375 125.62109375 C30.37262728 128.31128945 33.43820455 131.13257569 36.5 134 C41.27970657 138.4759206 46.20165788 142.67786048 51.30859375 146.78125 C55.14405481 149.94313952 58.78817299 153.29945088 62.44921875 156.66015625 C67.52378277 161.31507792 72.71548296 165.78596261 78.0625 170.125 C82.62936312 173.84191915 87.11252848 177.64399008 91.5625 181.5 C92.20469482 182.05574707 92.84688965 182.61149414 93.50854492 183.18408203 C97.19665003 186.38977676 100.80189708 189.66584486 104.375 193 C112.13601926 199.90857944 117.90219942 202.96042114 128.5625 202.546875 C136.49701075 201.28456647 141.95673084 196.46003598 147.3125 190.76953125 C151.69319245 186.17588847 156.73425612 182.22229995 161.58862305 178.14648438 C167.63041589 173.06800457 173.50465358 167.84895183 179.296875 162.48828125 C182.13878598 159.8722447 185.03310338 157.32865121 187.953125 154.80078125 C190.44074726 152.61224335 192.87353452 150.36760809 195.3125 148.125 C199.03274581 144.72466437 202.82450753 141.47335607 206.75 138.3125 C210.45528583 135.32419744 213.82791565 132.23639529 217.125 128.8125 C219.46601973 126.54951427 221.96314131 124.54051677 224.5 122.5 C229.56894161 118.41978052 234.15707346 114.0845753 238.5625 109.3046875 C240 108 240 108 242 108 C242.309375 107.05125 242.61875 106.1025 242.9375 105.125 C244 102 244 102 245 100 C246.66074513 87.51932116 242.48656842 77.3207068 238.125 65.875 C237.4349614 64.01546818 236.74715477 62.15510666 236.06152344 60.29394531 C234.69503398 56.59098132 233.31804771 52.89220569 231.93261719 49.19628906 C230.20079592 44.56155274 228.52429226 39.90960386 226.8828125 35.2421875 C226.65284576 34.58914642 226.42287903 33.93610535 226.1859436 33.26327515 C225.14140864 30.29332879 224.10012349 27.32224666 223.05908203 24.35107422 C218.86355756 12.51279925 218.86355756 12.51279925 210 4 C207.35452408 2.76513624 204.79437118 1.882433 202 1 C202 0.67 202 0.34 202 0 C216.85 0 231.7 0 247 0 C247 67.32 247 134.64 247 204 C165.49 204 83.98 204 0 204 C0 136.68 0 69.36 0 0 Z " fill="#FDFEFE" transform="translate(0,0)"/>
<path d="M0 0 C1.18888824 -0.00571014 2.37777649 -0.01142029 3.60269165 -0.01730347 C4.9138797 -0.01842133 6.22506775 -0.01953918 7.57598877 -0.02069092 C8.965547 -0.02531836 10.35510396 -0.03034292 11.74465942 -0.03573608 C15.52581451 -0.04887131 19.30695184 -0.0553075 23.08812618 -0.05974674 C25.4504082 -0.06267633 27.81268534 -0.06678097 30.1749649 -0.07125092 C37.56571199 -0.08493028 44.95644796 -0.09459416 52.34720683 -0.09845281 C60.87887305 -0.10293147 69.41037888 -0.12046852 77.94199634 -0.1494534 C84.53570978 -0.17107667 91.12937813 -0.18115747 97.72312665 -0.18249393 C101.66145567 -0.18354172 105.59963403 -0.18944358 109.53792572 -0.20731354 C113.2446746 -0.22380492 116.95115976 -0.22594467 120.65793228 -0.21717453 C122.66303678 -0.21603821 124.66813257 -0.2297483 126.67318726 -0.243927 C127.8733548 -0.23835785 129.07352234 -0.2327887 130.31005859 -0.22705078 C131.34908703 -0.22851734 132.38811546 -0.2299839 133.45862961 -0.2314949 C138.02739419 0.34446452 141.32767172 2.05911703 144.56915283 5.30059814 C146.90190996 8.90126573 148.36834809 12.56430802 149.84649658 16.57794189 C150.29327759 17.76468506 150.29327759 17.76468506 150.74908447 18.97540283 C151.35367176 20.58785188 151.95388485 22.20194808 152.54962158 23.81768799 C153.34177836 25.95876172 154.15336623 28.0912225 154.97149658 30.22247314 C155.42524658 31.43290283 155.87899658 32.64333252 156.34649658 33.89044189 C156.74739502 34.95778564 157.14829346 36.02512939 157.56134033 37.12481689 C158.44891134 40.28244278 158.47044222 42.87957576 158.40899658 46.14044189 C157.70821991 46.15074936 157.00744324 46.16105682 156.28543091 46.17167664 C149.66495809 46.26985977 143.04456861 46.37240276 136.4242382 46.47978115 C133.02107694 46.53482655 129.61790685 46.58821588 126.21466064 46.63775635 C122.29758326 46.69485046 118.38064232 46.75926309 114.46368408 46.82403564 C112.63992752 46.84910439 112.63992752 46.84910439 110.77932739 46.87467957 C109.63859772 46.89462479 108.49786804 46.91457001 107.3225708 46.93511963 C105.82365799 46.95843605 105.82365799 46.95843605 104.29446411 46.98222351 C101.27274056 47.1479132 98.38267812 47.58969688 95.40899658 48.14044189 C95.07899658 49.13044189 94.74899658 50.12044189 94.40899658 51.14044189 C93.08899658 51.14044189 91.76899658 51.14044189 90.40899658 51.14044189 C90.73899658 49.16044189 91.06899658 47.18044189 91.40899658 45.14044189 C52.13899658 45.14044189 12.86899658 45.14044189 -27.59100342 45.14044189 C-24.45176819 34.67632447 -21.1871061 24.37807518 -17.21600342 14.20294189 C-16.81429932 13.12000854 -16.81429932 13.12000854 -16.40447998 12.01519775 C-13.31683389 4.30599037 -8.49296529 0.02435008 0 0 Z " fill="#FDFEFE" transform="translate(57.59100341796875,20.85955810546875)"/>
<path d="M0 0 C41.58 0 83.16 0 126 0 C123.6626474 11.686763 110.64605814 20.11462004 101.75 27.25 C97.08382639 31.00700512 92.7227135 35.01069177 88.375 39.125 C72.64421827 54.00022366 72.64421827 54.00022366 64.16796875 54.328125 C59.28789931 53.5895199 55.86529761 50.13183288 52.375 46.875 C48.85629813 43.64822007 45.28066331 40.55724384 41.5625 37.5625 C36.73051072 33.65186461 32.12607046 29.54235615 27.55078125 25.3359375 C25.39181248 23.35881142 23.21102273 21.41832115 21 19.5 C16.78827678 15.842907 12.6839054 12.07103734 8.56640625 8.30859375 C6.51666549 6.46476302 4.44820916 4.67939045 2.3125 2.9375 C1.549375 2.298125 0.78625 1.65875 0 1 C0 0.67 0 0.34 0 0 Z " fill="#EEF4FD" transform="translate(58,123)"/>
<path d="M0 0 C0.64327216 -0.00453111 1.28654433 -0.00906223 1.94930959 -0.01373065 C4.09089422 -0.02632533 6.23222292 -0.02475751 8.37384033 -0.02310181 C9.91513392 -0.02909023 11.45642451 -0.0358965 12.99771118 -0.04345703 C17.17559614 -0.06109425 21.35339912 -0.0658115 25.53131771 -0.0670886 C28.14492324 -0.06851228 30.75850808 -0.07278601 33.37210846 -0.07808304 C42.4999778 -0.09657716 51.62778881 -0.1047546 60.75567627 -0.10317993 C69.24786539 -0.10197933 77.73980002 -0.12306719 86.23192477 -0.15466726 C93.53576304 -0.18087154 100.83951841 -0.19154546 108.14340329 -0.19026911 C112.49989604 -0.18976061 116.85616264 -0.19538124 121.21260834 -0.21662521 C125.31345646 -0.23607729 129.41386434 -0.23608489 133.51472855 -0.22159195 C135.01344322 -0.21951122 136.51218596 -0.22416061 138.01085281 -0.23631287 C156.35298668 -0.37532138 156.35298668 -0.37532138 163.05677414 5.85634804 C164.47247314 7.51742554 164.47247314 7.51742554 166.34747314 10.26742554 C161.89247314 9.27742554 161.89247314 9.27742554 157.34747314 8.26742554 C157.01747314 6.61742554 156.68747314 4.96742554 156.34747314 3.26742554 C150.40747314 3.26742554 144.46747314 3.26742554 138.34747314 3.26742554 C139.33747314 4.25742554 140.32747314 5.24742554 141.34747314 6.26742554 C140.36077133 6.277733 139.37406952 6.28804047 138.35746765 6.29866028 C129.04426984 6.39655173 119.7311365 6.49930014 110.41804409 6.60676479 C105.63046422 6.66185407 100.84287811 6.7152511 96.05523682 6.76473999 C91.43216421 6.81259071 86.80916216 6.86493988 82.18617439 6.92036629 C80.42522 6.94069636 78.66424633 6.95942432 76.90325737 6.97649956 C74.43073465 7.00075178 71.95834272 7.03077608 69.48590088 7.06210327 C68.40156265 7.07073647 68.40156265 7.07073647 67.2953186 7.07954407 C63.93046761 7.12778673 60.73572187 7.35661635 57.40132141 7.84275818 C56.39355148 7.98289841 55.38578156 8.12303864 54.34747314 8.26742554 C53.85247314 7.77242554 53.85247314 7.77242554 53.34747314 7.26742554 C51.50588292 7.16782933 49.66050347 7.13662143 47.81622314 7.13461304 C46.13593018 7.13267944 46.13593018 7.13267944 44.42169189 7.13070679 C42.65245361 7.13650757 42.65245361 7.13650757 40.84747314 7.14242554 C39.66798096 7.13855835 38.48848877 7.13469116 37.27325439 7.13070679 C36.15305908 7.13199585 35.03286377 7.13328491 33.87872314 7.13461304 C32.32508057 7.13630493 32.32508057 7.13630493 30.74005127 7.13803101 C28.39449491 6.99777401 28.39449491 6.99777401 27.34747314 8.26742554 C25.34788951 8.30823337 23.3470206 8.3099691 21.34747314 8.26742554 C21.34747314 7.60742554 21.34747314 6.94742554 21.34747314 6.26742554 C17.61803492 6.40678097 13.88900218 6.55504855 10.15997314 6.70492554 C9.10487549 6.74424194 8.04977783 6.78355835 6.96270752 6.82406616 C5.94112549 6.86596069 4.91954346 6.90785522 3.86700439 6.95101929 C2.46091919 7.00600586 2.46091919 7.00600586 1.02642822 7.06210327 C-1.60367668 7.26368153 -4.08019099 7.69420874 -6.65252686 8.26742554 C-6.65252686 6.94742554 -6.65252686 5.62742554 -6.65252686 4.26742554 C-9.72706245 5.04381874 -9.72706245 5.04381874 -11.65252686 7.26742554 C-12.64252686 6.60742554 -13.63252686 5.94742554 -14.65252686 5.26742554 C-14.90002686 5.80367554 -15.14752686 6.33992554 -15.40252686 6.89242554 C-16.65252686 9.26742554 -16.65252686 9.26742554 -18.65252686 12.01742554 C-20.99897373 15.83040171 -21.75056857 18.90796047 -22.65252686 23.26742554 C-23.31252686 23.26742554 -23.97252686 23.26742554 -24.65252686 23.26742554 C-25.31252686 25.57742554 -25.97252686 27.88742554 -26.65252686 30.26742554 C-27.31252686 29.93742554 -27.97252686 29.60742554 -28.65252686 29.26742554 C-25.83961872 18.51891476 -22.44138047 8.49830523 -12.65252686 2.26742554 C-8.29943326 0.55575166 -4.66476259 0.01363549 0 0 Z " fill="#46A8FC" transform="translate(50.65252685546875,-0.267425537109375)"/>
<path d="M0 0 C0.64327216 -0.00453111 1.28654433 -0.00906223 1.94930959 -0.01373065 C4.09089422 -0.02632533 6.23222292 -0.02475751 8.37384033 -0.02310181 C9.91513392 -0.02909023 11.45642451 -0.0358965 12.99771118 -0.04345703 C17.17559614 -0.06109425 21.35339912 -0.0658115 25.53131771 -0.0670886 C28.14492324 -0.06851228 30.75850808 -0.07278601 33.37210846 -0.07808304 C42.4999778 -0.09657716 51.62778881 -0.1047546 60.75567627 -0.10317993 C69.24786539 -0.10197933 77.73980002 -0.12306719 86.23192477 -0.15466726 C93.53576304 -0.18087154 100.83951841 -0.19154546 108.14340329 -0.19026911 C112.49989604 -0.18976061 116.85616264 -0.19538124 121.21260834 -0.21662521 C125.31345646 -0.23607729 129.41386434 -0.23608489 133.51472855 -0.22159195 C135.01344322 -0.21951122 136.51218596 -0.22416061 138.01085281 -0.23631287 C156.35298668 -0.37532138 156.35298668 -0.37532138 163.05677414 5.85634804 C164.47247314 7.51742554 164.47247314 7.51742554 166.34747314 10.26742554 C161.89247314 9.27742554 161.89247314 9.27742554 157.34747314 8.26742554 C157.01747314 6.61742554 156.68747314 4.96742554 156.34747314 3.26742554 C135.21581 3.24405836 114.08414899 3.22642758 92.95247555 3.21561337 C83.1405335 3.21045853 73.32859949 3.2034313 63.5166626 3.19198608 C54.96392978 3.18201444 46.41120277 3.17556619 37.8584643 3.17333704 C33.3304752 3.17203416 28.80250273 3.16897496 24.27451897 3.16169548 C20.01056053 3.15489616 15.74662555 3.15281655 11.4826622 3.15431786 C9.91980804 3.15404329 8.35695308 3.15206141 6.79410362 3.14822006 C4.65516225 3.14322166 2.51630866 3.14444981 0.37736511 3.14717102 C-0.81820039 3.14624923 -2.01376589 3.14532743 -3.24556065 3.14437771 C-6.77556121 3.27186911 -10.16722473 3.70660803 -13.65252686 4.26742554 C-12.65252686 2.26742554 -12.65252686 2.26742554 -10.00580978 1.15913963 C-6.5173869 0.23148875 -3.6044104 0.010536 0 0 Z " fill="#62B3F2" transform="translate(50.65252685546875,-0.267425537109375)"/>
<path d="M0 0 C0.99 0.495 0.99 0.495 2 1 C1.51789063 1.51949219 1.03578125 2.03898438 0.5390625 2.57421875 C-2.84781228 6.31360498 -5.14414529 9.28898421 -7 14 C-8.9375 14.75 -8.9375 14.75 -11 15 C-11.99 15.33 -12.98 15.66 -14 16 C-14.33 18.31 -14.66 20.62 -15 23 C-15.99 23 -16.98 23 -18 23 C-20.78480204 23.48734036 -23.31237917 24.10412639 -26 25 C-26.37125 26.0828125 -26.37125 26.0828125 -26.75 27.1875 C-28.30661407 30.68988167 -30.38507887 32.10162643 -33.3359375 34.4453125 C-35.28411787 36.07344558 -35.28411787 36.07344558 -36.5625 39.3125 C-37.2740625 40.6428125 -37.2740625 40.6428125 -38 42 C-41.1875 42.875 -41.1875 42.875 -44 43 C-44 44.32 -44 45.64 -44 47 C-44.9075 47.12375 -45.815 47.2475 -46.75 47.375 C-49.87282614 47.79588971 -49.87282614 47.79588971 -51.875 49.0625 C-55.2068858 50.53244962 -58.46231708 50.57528675 -62 50 C-63.93359375 49.06640625 -63.93359375 49.06640625 -65.75 47.9375 C-68.72345156 45.72654134 -68.72345156 45.72654134 -71.4375 46.25 C-71.953125 46.4975 -72.46875 46.745 -73 47 C-73.0928125 46.1028125 -73.0928125 46.1028125 -73.1875 45.1875 C-74.3236757 42.12856542 -76.17330142 41.44958901 -79 40 C-78.67 39.01 -78.34 38.02 -78 37 C-79.32 37 -80.64 37 -82 37 C-82.495 35.515 -82.495 35.515 -83 34 C-83.66 34 -84.32 34 -85 34 C-85.433125 33.525625 -85.86625 33.05125 -86.3125 32.5625 C-88.44693733 30.58616914 -90.16307947 30.38336764 -93 30 C-93.33 28.02 -93.66 26.04 -94 24 C-89.02246524 24 -88.42685826 25.061199 -84.9375 28.4375 C-83.96973439 29.35658027 -82.99961434 30.27318675 -82.02734375 31.1875 C-81.53089355 31.65542969 -81.03444336 32.12335938 -80.52294922 32.60546875 C-77.25679185 35.59621753 -73.76753484 38.32280277 -70.3125 41.08984375 C-68 43 -68 43 -66.375 44.69140625 C-63.51672823 47.41163649 -59.98325887 47.20855388 -56.23046875 47.42578125 C-50.3536501 46.30393671 -45.83308652 41.18357797 -41.625 37.1875 C-40.47070897 36.1073705 -39.31576453 35.02793884 -38.16015625 33.94921875 C-37.61117676 33.43536621 -37.06219727 32.92151367 -36.49658203 32.39208984 C-32.39588966 28.57771009 -28.12746358 24.95637919 -23.859375 21.33203125 C-15.72191371 14.41011962 -7.7962329 7.30411189 0 0 Z " fill="#4278ED" transform="translate(182,129)"/>
<path d="M0 0 C0.6875 3.125 0.6875 3.125 1 6 C1.99 6 2.98 6 4 6 C3.67 6.99 3.34 7.98 3 9 C1.6078125 8.0409375 1.6078125 8.0409375 0.1875 7.0625 C-4.02429292 4.33722223 -6.7654707 3.872553 -11.67570496 3.84178162 C-12.85781052 3.8319928 -14.03991608 3.82220398 -15.25784302 3.81211853 C-16.55616058 3.80636307 -17.85447815 3.8006076 -19.19213867 3.79467773 C-20.57187696 3.78509846 -21.95161232 3.77508835 -23.3313446 3.76467896 C-27.07896257 3.73762912 -30.82659313 3.71661998 -34.57425475 3.69667697 C-38.49006305 3.67481791 -42.40583252 3.64742883 -46.3216095 3.62062073 C-53.7375919 3.57069276 -61.15359586 3.52575431 -68.56962043 3.48259836 C-77.01211845 3.43322688 -85.45457752 3.37830842 -93.89703786 3.32291877 C-111.26465591 3.20909713 -128.63231011 3.10225848 -146 3 C-146 2.34 -146 1.68 -146 1 C-100.79 0.67 -55.58 0.34 -9 0 C-9 -0.33 -9 -0.66 -9 -1 C-3.375 -2.25 -3.375 -2.25 0 0 Z " fill="#6AAFED" transform="translate(200,18)"/>
<path d="M0 0 C1.57539287 2.3630893 2.61153858 4.21742456 3.625 6.8125 C3.88539063 7.45832031 4.14578125 8.10414062 4.4140625 8.76953125 C5.14617732 11.55644833 5.03675307 14.12909513 5 17 C4.29922333 17.01030746 3.59844666 17.02061493 2.87643433 17.03123474 C-3.74403849 17.12941787 -10.36442797 17.23196086 -16.98475838 17.33933926 C-20.38791964 17.39438466 -23.79108973 17.44777398 -27.19433594 17.49731445 C-31.11141332 17.55440857 -35.02835427 17.61882119 -38.9453125 17.68359375 C-40.76906906 17.70866249 -40.76906906 17.70866249 -42.62966919 17.73423767 C-44.3407637 17.7641555 -44.3407637 17.7641555 -46.08642578 17.79467773 C-47.58533859 17.81799416 -47.58533859 17.81799416 -49.11453247 17.84178162 C-52.13625602 18.0074713 -55.02631846 18.44925498 -58 19 C-58.495 20.485 -58.495 20.485 -59 22 C-60.32 22 -61.64 22 -63 22 C-62.67 20.02 -62.34 18.04 -62 16 C-101.27 16 -140.54 16 -181 16 C-180.67 15.34 -180.34 14.68 -180 14 C-119.61 14 -59.22 14 3 14 C2.01 10.7 1.02 7.4 0 4 C0 2.68 0 1.36 0 0 Z " fill="#DBF0FC" transform="translate(211,50)"/>
<path d="M0 0 C1.19322372 -0.00563965 2.38644745 -0.0112793 3.61582947 -0.01708984 C5.58968124 -0.01101715 5.58968124 -0.01101715 7.60340881 -0.00482178 C8.99783511 -0.00753069 10.39225998 -0.01109106 11.78668213 -0.01544189 C15.58006808 -0.02458089 19.37334558 -0.02101525 23.1667335 -0.01468372 C27.13183945 -0.00963051 31.09693593 -0.01431337 35.06204224 -0.01745605 C41.722658 -0.02109811 48.38322946 -0.01629078 55.0438385 -0.0067749 C62.7487137 0.00410566 70.45348303 0.00058795 78.15835565 -0.01042771 C84.76731458 -0.0194991 91.37624161 -0.02078646 97.98520476 -0.01555037 C101.93513033 -0.01242928 105.88500612 -0.01202505 109.83492851 -0.01862335 C113.54902547 -0.02439389 117.26298578 -0.02040534 120.97706795 -0.00883484 C122.9934635 -0.00492144 125.00987059 -0.01087672 127.02626038 -0.01708984 C128.8203257 -0.00863037 128.8203257 -0.00863037 130.65063477 0 C131.69242858 0.00075405 132.73422239 0.0015081 133.80758572 0.002285 C136.3888092 0.25396729 136.3888092 0.25396729 139.3888092 2.25396729 C137.7388092 2.58396729 136.0888092 2.91396729 134.3888092 3.25396729 C134.3888092 2.59396729 134.3888092 1.93396729 134.3888092 1.25396729 C64.0988092 1.74896729 64.0988092 1.74896729 -7.6111908 2.25396729 C-4.95252184 -0.40470167 -3.71388578 0.00268909 0 0 Z " fill="#E4FEFE" transform="translate(57.61119079589844,20.74603271484375)"/>
<path d="M0 0 C0.33 0.66 0.66 1.32 1 2 C1.66 2 2.32 2 3 2 C3.33 1.34 3.66 0.68 4 0 C4.33 1.32 4.66 2.64 5 4 C-11.76360165 19.65701559 -11.76360165 19.65701559 -17 24 C-17.66773438 24.57492188 -18.33546875 25.14984375 -19.0234375 25.7421875 C-19.67570313 26.15726563 -20.32796875 26.57234375 -21 27 C-21.99 26.67 -22.98 26.34 -24 26 C-24.042721 24.33388095 -24.04063832 22.66617115 -24 21 C-23 20 -23 20 -19.4375 19.9375 C-18.303125 19.958125 -17.16875 19.97875 -16 20 C-16 18.02 -16 16.04 -16 14 C-12.86501708 12.14223235 -10.62528568 11.79859524 -7 12 C-7.12375 10.8553125 -7.12375 10.8553125 -7.25 9.6875 C-7 7 -7 7 -5.1875 5.1875 C-3 4 -3 4 0 4 C0 2.68 0 1.36 0 0 Z " fill="#436BEB" transform="translate(160,172)"/>
<path d="M0 0 C1.32 0.33 2.64 0.66 4 1 C-5.01397053 12.20655796 -16.47545633 21.47023334 -28 30 C-28.66 29.34 -29.32 28.68 -30 28 C-28.68 27.34 -27.36 26.68 -26 26 C-26.061875 25.05125 -26.12375 24.1025 -26.1875 23.125 C-26.125625 22.09375 -26.06375 21.0625 -26 20 C-22.77208445 17.8480563 -21.71599191 17.79913557 -18 18 C-18 16.68 -18 15.36 -18 14 C-16.68 14 -15.36 14 -14 14 C-14 13.34 -14 12.68 -14 12 C-12.68 12 -11.36 12 -10 12 C-9.773125 11.38125 -9.54625 10.7625 -9.3125 10.125 C-7.61044153 7.36928629 -5.97290314 7.11483868 -3 6 C-0.89767656 3.1315587 -0.89767656 3.1315587 0 0 Z " fill="#CADEF6" transform="translate(178,128)"/>
<path d="M0 0 C1.175625 0.5259375 1.175625 0.5259375 2.375 1.0625 C3.674375 1.5265625 3.674375 1.5265625 5 2 C5.66 1.67 6.32 1.34 7 1 C9.93171472 3.54931715 9.93171472 3.54931715 10.3125 6.0625 C10.6528125 7.0215625 10.6528125 7.0215625 11 8 C11.969375 8.309375 12.93875 8.61875 13.9375 8.9375 C14.948125 9.288125 15.95875 9.63875 17 10 C17.4640625 11.2065625 17.4640625 11.2065625 17.9375 12.4375 C19.18493415 15.44601766 19.73981228 15.60313988 22.625 16.8125 C23.73875 17.204375 24.8525 17.59625 26 18 C26 18.99 26 19.98 26 21 C26.99 21.33 27.98 21.66 29 22 C29.45375 22.53625 29.9075 23.0725 30.375 23.625 C30.91125 24.07875 31.4475 24.5325 32 25 C34.65466049 24.76956136 34.65466049 24.76956136 37 24 C37 24.99 37 25.98 37 27 C37.33 27.33 37.66 27.66 38 28 C37.34 28.99 36.68 29.98 36 31 C32.36822493 28.95953274 29.41731552 26.71381615 26.375 23.875 C22.83499632 20.62912126 19.23696635 17.51709748 15.5 14.5 C10.17627038 10.18633605 4.91647465 5.77783219 0 1 C0 0.67 0 0.34 0 0 Z " fill="#467BE6" transform="translate(38,135)"/>
<path d="M0 0 C1.0725 0.350625 2.145 0.70125 3.25 1.0625 C6.6816544 1.9204136 7.84417895 2.16882261 11 1 C11.66 1 12.32 1 13 1 C13 2.98 13 4.96 13 7 C16.80427492 9.2013866 16.80427492 9.2013866 21 10 C21.33 12.97 21.66 15.94 22 19 C16.9460882 15.94105338 12.76238499 12.17846328 8.4140625 8.19140625 C6.440207 6.39960539 4.44274873 4.68065832 2.375 3 C1.59125 2.34 0.8075 1.68 0 1 C0 0.67 0 0.34 0 0 Z " fill="#4072EB" transform="translate(75,167)"/>
<path d="M0 0 C0.66 0.33 1.32 0.66 2 1 C1.67 1.66 1.34 2.32 1 3 C2.49720581 2.99129883 2.49720581 2.99129883 4.0246582 2.98242188 C19.36762033 2.92423126 34.70545827 3.20113978 50.04547119 3.46356201 C53.65985212 3.52504614 57.27426326 3.58470102 60.88867188 3.64453125 C67.92581102 3.76127772 74.96291587 3.87997926 82 4 C82 4.33 82 4.66 82 5 C52.96 5 23.92 5 -6 5 C-3 2 -3 2 0 0 Z " fill="#ABC2F0" transform="translate(65,117)"/>
<path d="M0 0 C-4.52607447 4.63441136 -9.12531903 9.10989425 -14.046875 13.32421875 C-15.36452481 14.45476228 -16.66647637 15.60382759 -17.953125 16.76953125 C-18.87351563 17.59517578 -18.87351563 17.59517578 -19.8125 18.4375 C-20.35519531 18.93121094 -20.89789063 19.42492187 -21.45703125 19.93359375 C-23 21 -23 21 -26 21 C-26.33 19.35 -26.66 17.7 -27 16 C-24.69 16 -22.38 16 -20 16 C-20 15.01 -20 14.02 -20 13 C-20.66 13 -21.32 13 -22 13 C-22 11.68 -22 10.36 -22 9 C-21.01 9 -20.02 9 -19 9 C-19 9.66 -19 10.32 -19 11 C-14.38572766 9.93309574 -14.38572766 9.93309574 -11.4375 6.4375 C-10.963125 5.633125 -10.48875 4.82875 -10 4 C-7.3125 3.1875 -7.3125 3.1875 -5 3 C-5.33 2.01 -5.66 1.02 -6 0 C-2.25 -1.125 -2.25 -1.125 0 0 Z " fill="#437BE4" transform="translate(192,152)"/>
<path d="M0 0 C22.11 0 44.22 0 67 0 C67 0.33 67 0.66 67 1 C66.29922333 1.01030746 65.59844666 1.02061493 64.87643433 1.03123474 C58.25596151 1.12941787 51.63557203 1.23196086 45.01524162 1.33933926 C41.61208036 1.39438466 38.20891027 1.44777398 34.80566406 1.49731445 C30.88858668 1.55440857 26.97164573 1.61882119 23.0546875 1.68359375 C21.23093094 1.70866249 21.23093094 1.70866249 19.37033081 1.73423767 C18.22960114 1.75418289 17.08887146 1.77412811 15.91357422 1.79467773 C14.41466141 1.81799416 14.41466141 1.81799416 12.88546753 1.84178162 C9.86374398 2.0074713 6.97368154 2.44925498 4 3 C3.67 3.99 3.34 4.98 3 6 C1.68 6 0.36 6 -1 6 C-0.67 4.02 -0.34 2.04 0 0 Z " fill="#DDE7F9" transform="translate(149,66)"/>
<path d="M0 0 C2.31 0.33 4.62 0.66 7 1 C7.33 2.65 7.66 4.3 8 6 C11.97754128 6.73334429 11.97754128 6.73334429 16 7 C21 7 26 7 31 7 C26.61877556 11.06750713 22.27015305 10.5427791 16.55859375 10.41796875 C10.02000234 9.6499893 5.81199101 6.98877063 1.4375 2.1875 C0.963125 1.465625 0.48875 0.74375 0 0 Z " fill="#3F69E3" transform="translate(105,193)"/>
<path d="M0 0 C3.5532631 2.71965299 4.42132182 6.59059113 5.6875 10.6875 C5.91244141 11.38939453 6.13738281 12.09128906 6.36914062 12.81445312 C6.92096357 14.54036743 7.46159058 16.26985433 8 18 C7.34 18.66 6.68 19.32 6 20 C5.01 18.68 4.02 17.36 3 16 C3.66 16 4.32 16 5 16 C4.67 14.35 4.34 12.7 4 11 C3.67 11.99 3.34 12.98 3 14 C2.01 14.33 1.02 14.66 0 15 C-0.39143394 13.25360243 -0.76254287 11.50264082 -1.125 9.75 C-1.33382812 8.77546875 -1.54265625 7.8009375 -1.7578125 6.796875 C-2.0202996 3.76557234 -1.61988849 2.51982654 0 0 Z " fill="#51A3EF" transform="translate(217,10)"/>
<path d="M0 0 C-0.0625 2.25 -0.0625 2.25 -1 5 C-2.73699596 6.18218152 -4.53287279 7.07897001 -6.41015625 8.01953125 C-8.22604686 8.92588235 -8.22604686 8.92588235 -8.9375 11.25 C-8.958125 11.8275 -8.97875 12.405 -9 13 C-11.31 12.34 -13.62 11.68 -16 11 C-14.6551963 6.96558889 -12.04690097 5.87332753 -8.5625 3.8125 C-7.96373047 3.44447266 -7.36496094 3.07644531 -6.74804688 2.69726562 C-2.27929325 0 -2.27929325 0 0 0 Z " fill="#BFDEFB" transform="translate(149,67)"/>
<path d="M0 0 C1 2 1 2 0.375 3.9375 C-1 6 -1 6 -3.4375 7.4375 C-6.40624878 9.24771267 -7.25441319 11.06424036 -9 14 C-9.99 14 -10.98 14 -12 14 C-12 15.98 -12 17.96 -12 20 C-13.32 19.67 -14.64 19.34 -16 19 C-16 18.34 -16 17.68 -16 17 C-16.66 16.67 -17.32 16.34 -18 16 C-12.07341663 10.57712263 -6.13842918 5.18356242 0 0 Z " fill="#EAF6F7" transform="translate(234,114)"/>
<path d="M0 0 C1.65 0 3.3 0 5 0 C5 0.99 5 1.98 5 3 C6.22231081 9.3500537 8.00950699 15.27421146 10.625 21.1875 C12.84806777 26.2544923 13.72438967 30.48779337 14 36 C11.86666028 32.79999042 10.74635168 29.86312145 9.43359375 26.25 C9.19463882 25.59547852 8.9556839 24.94095703 8.70948792 24.26660156 C7.94842477 22.1790714 7.19294805 20.08956786 6.4375 18 C5.9254859 16.59362045 5.41311998 15.18736894 4.90039062 13.78125 C1.26981615 3.80944845 1.26981615 3.80944845 0 0 Z " fill="#519AE5" transform="translate(203,28)"/>
<path d="M0 0 C0.99 0.33 1.98 0.66 3 1 C3 1.33 3 1.66 3 2 C9.13418935 3.02379878 15.22844151 3.31607673 21.4375 3.5625 C22.45521484 3.60568359 23.47292969 3.64886719 24.52148438 3.69335938 C27.01421028 3.79868582 29.50702338 3.90081672 32 4 C32 4.33 32 4.66 32 5 C18.8 5 5.6 5 -8 5 C-5.10035308 2.10035308 -4.64425785 1.72885157 -1 1 C-0.67 0.67 -0.34 0.34 0 0 Z " fill="#3D80E7" transform="translate(158,117)"/>
<path d="M0 0 C0.66 0.33 1.32 0.66 2 1 C-4.28436863 7.56367391 -10.87668525 13.36792123 -18 19 C-18.66 18.34 -19.32 17.68 -20 17 C-19.01 16.34 -18.02 15.68 -17 15 C-17.33 14.34 -17.66 13.68 -18 13 C-17.67 12.34 -17.34 11.68 -17 11 C-13.9375 10.375 -13.9375 10.375 -11 10 C-10.67 8.68 -10.34 7.36 -10 6 C-8.68 6.33 -7.36 6.66 -6 7 C-6 6.01 -6 5.02 -6 4 C-3 1.8125 -3 1.8125 0 0 Z " fill="#4A7EE6" transform="translate(218,126)"/>
<path d="M0 0 C0.66 0.33 1.32 0.66 2 1 C1.51789062 1.54527344 1.03578125 2.09054688 0.5390625 2.65234375 C-3.98750121 8.05650654 -6.00232913 12.01630389 -7 19 C-7.66 19 -8.32 19 -9 19 C-9.66 21.31 -10.32 23.62 -11 26 C-11.66 25.67 -12.32 25.34 -13 25 C-10.53818061 15.59304785 -7.56303562 6.48260196 0 0 Z " fill="#57A4EA" transform="translate(35,4)"/>
<path d="M0 0 C0.66 0.33 1.32 0.66 2 1 C-0.625 4.875 -0.625 4.875 -4 6 C-3.67 6.66 -3.34 7.32 -3 8 C-3.721875 8.268125 -4.44375 8.53625 -5.1875 8.8125 C-8.94334499 10.39830122 -12.10832345 12.10832345 -15 15 C-15 14.34 -15 13.68 -15 13 C-16.32 13.33 -17.64 13.66 -19 14 C-19 14.66 -19 15.32 -19 16 C-19.66 16 -20.32 16 -21 16 C-19.62821805 11.88465414 -17.57981884 11.29388028 -13.875 9.125 C-9.08266136 6.27809216 -4.47301796 3.32875755 0 0 Z " fill="#4A8DEC" transform="translate(206,85)"/>
<path d="M0 0 C20.295 0.495 20.295 0.495 41 1 C40.34 2.32 39.68 3.64 39 5 C38.01 5.33 37.02 5.66 36 6 C36 6.66 36 7.32 36 8 C35.34 7.67 34.68 7.34 34 7 C34.66 5.35 35.32 3.7 36 2 C24.12 2 12.24 2 0 2 C0 1.34 0 0.68 0 0 Z " fill="#7AA5EF" transform="translate(148,121)"/>
<path d="M0 0 C0.93423645 3.01031744 1.04449911 3.86650268 0 7 C-0.34820041 8.66362417 -0.68404492 10.32995171 -1 12 C-1.66 12 -2.32 12 -3 12 C-3.05383848 14.45862401 -3.09359038 16.9160755 -3.125 19.375 C-3.14175781 20.07367188 -3.15851562 20.77234375 -3.17578125 21.4921875 C-3.19344267 23.32897486 -3.10303261 25.16601963 -3 27 C-2.34 27.66 -1.68 28.32 -1 29 C-0.28072705 31.31765729 0.3909893 33.65095874 1 36 C-2.81118893 32.44289033 -4.76467473 30.03865994 -5.37109375 24.78515625 C-5.5391595 15.36358786 -4.07780236 8.63620287 0 0 Z " fill="#4F8ADD" transform="translate(6,72)"/>
<path d="M0 0 C1.32 0.33 2.64 0.66 4 1 C-1.09500827 7.3343346 -6.92530665 12.62789574 -13 18 C-14 15 -14 15 -13 12 C-12.01 12 -11.02 12 -10 12 C-9.773125 11.38125 -9.54625 10.7625 -9.3125 10.125 C-7.61044153 7.36928629 -5.97290314 7.11483868 -3 6 C-0.89767656 3.1315587 -0.89767656 3.1315587 0 0 Z " fill="#AACBFC" transform="translate(178,128)"/>
<path d="M0 0 C1.4216868 4.26506039 -0.34613318 7.20037743 -1.9375 11.1875 C-2.22818359 11.93708984 -2.51886719 12.68667969 -2.81835938 13.45898438 C-3.53725036 15.30924477 -4.26754653 17.15506648 -5 19 C-5.33 19 -5.66 19 -6 19 C-6 14.71 -6 10.42 -6 6 C-5.34 6 -4.68 6 -4 6 C-3.67 4.68 -3.34 3.36 -3 2 C-2.01 2 -1.02 2 0 2 C0 1.34 0 0.68 0 0 Z " fill="#E5FBF8" transform="translate(14,47)"/>
<path d="M0 0 C1.71700545 2.57550818 2.56997075 4.35577992 3.5078125 7.23046875 C3.90419922 8.43413086 3.90419922 8.43413086 4.30859375 9.66210938 C4.57800781 10.49548828 4.84742188 11.32886719 5.125 12.1875 C5.40214844 13.03248047 5.67929688 13.87746094 5.96484375 14.74804688 C6.64730716 16.83073693 7.32552526 18.91471191 8 21 C7.01 21.99 6.02 22.98 5 24 C2.52078845 20.28118267 2.92648099 18.41114084 3 14 C2.70307988 11.66175408 2.37979153 9.32622311 2 7 C1.34 7 0.68 7 0 7 C0 4.69 0 2.38 0 0 Z " fill="#4F97EC" transform="translate(229,41)"/>
<path d="M0 0 C0 3.26656076 -0.11558061 4.37819911 -2 7 C-7.18100584 9.90136327 -11.09377968 10.6562467 -17 10 C-19.29561506 8.8741251 -20.9844168 7.61246656 -23 6 C-22.67 5.34 -22.34 4.68 -22 4 C-21.34 4.495 -20.68 4.99 -20 5.5 C-16.26391588 7.36804206 -13.06468585 7.73323745 -9 7 C-5.509029 5.08984606 -2.66162194 2.95735771 0 0 Z " fill="#4873E0" transform="translate(137,169)"/>
<path d="M0 0 C0.99 0 1.98 0 3 0 C3 0.66 3 1.32 3 2 C3.99 2 4.98 2 6 2 C6 2.66 6 3.32 6 4 C5.01 4 4.02 4 3 4 C2.896875 4.763125 2.79375 5.52625 2.6875 6.3125 C1.94932885 9.19807812 1.37859197 10.26179817 -1 12 C-1.99 12 -2.98 12 -4 12 C-4.33 10.35 -4.66 8.7 -5 7 C-2.69 7 -0.38 7 2 7 C2 6.01 2 5.02 2 4 C1.34 4 0.68 4 0 4 C0 2.68 0 1.36 0 0 Z " fill="#3B75EE" transform="translate(170,161)"/>
<path d="M0 0 C3.23087421 0.55704728 5.02361137 1.33187535 7 4 C7 5.32 7 6.64 7 8 C8.4166747 9.7511573 8.4166747 9.7511573 10 11 C9.67 11.66 9.34 12.32 9 13 C5.7 10.03 2.4 7.06 -1 4 C-0.67 2.68 -0.34 1.36 0 0 Z " fill="#4186ED" transform="translate(8,105)"/>
<path d="M0 0 C1.06663156 3.19989467 0.95708631 3.91280018 0.0625 7 C-0.66778658 9.55358486 -1 11.29708365 -1 14 C-1.99 14 -2.98 14 -4 14 C-3.773125 14.763125 -3.54625 15.52625 -3.3125 16.3125 C-3.209375 17.199375 -3.10625 18.08625 -3 19 C-4.4375 20.8125 -4.4375 20.8125 -6 22 C-7.15699511 18.52901466 -6.82954442 17.85266875 -5.56640625 14.55078125 C-5.0878418 13.27944336 -5.0878418 13.27944336 -4.59960938 11.98242188 C-4.25736328 11.10134766 -3.91511719 10.22027344 -3.5625 9.3125 C-3.22412109 8.41982422 -2.88574219 7.52714844 -2.53710938 6.60742188 C-1.69962693 4.40165826 -0.85367026 2.19953824 0 0 Z " fill="#5396E5" transform="translate(17,42)"/>
<path d="M0 0 C0 0.99 0 1.98 0 3 C0.33 3.99 0.66 4.98 1 6 C0.236875 6.144375 -0.52625 6.28875 -1.3125 6.4375 C-4.08172908 6.9632594 -4.08172908 6.9632594 -7 8 C-7.268125 8.598125 -7.53625 9.19625 -7.8125 9.8125 C-9.50798425 12.93576046 -12.01439213 14.18267347 -15 16 C-15.66 15.67 -16.32 15.34 -17 15 C-11.39476999 9.92484204 -5.76774721 4.89004655 0 0 Z " fill="#507FE9" transform="translate(163,146)"/>
<path d="M0 0 C0.99 0.33 1.98 0.66 3 1 C-0.515625 5.6875 -0.515625 5.6875 -2 7 C-6 7 -6 7 -9 6 C-8.375 4.0625 -8.375 4.0625 -7 2 C-3.9375 1.3125 -3.9375 1.3125 -1 1 C-0.67 0.67 -0.34 0.34 0 0 Z " fill="#3C80F6" transform="translate(225,118)"/>
<path d="M0 0 C0.66 0.33 1.32 0.66 2 1 C1.67 1.66 1.34 2.32 1 3 C7.27 3 13.54 3 20 3 C18 5 18 5 15.56982422 5.22705078 C14.5748291 5.21657715 13.57983398 5.20610352 12.5546875 5.1953125 C11.47832031 5.18886719 10.40195313 5.18242188 9.29296875 5.17578125 C8.16503906 5.15902344 7.03710938 5.14226562 5.875 5.125 C4.73933594 5.11597656 3.60367188 5.10695313 2.43359375 5.09765625 C-0.37781299 5.07403098 -3.18880298 5.04109013 -6 5 C-4.06745228 2.9754262 -2.36841312 1.57894208 0 0 Z " fill="#A9C5F2" transform="translate(65,117)"/>
<path d="M0 0 C0.99 0.66 1.98 1.32 3 2 C2.38125 2.0825 1.7625 2.165 1.125 2.25 C-1.16352629 2.79948083 -1.16352629 2.79948083 -2.125 4.9375 C-2.558125 5.9584375 -2.558125 5.9584375 -3 7 C-5.2551922 9.2551922 -7.0047587 9.97723468 -10 11 C-10.99 11 -11.98 11 -13 11 C-11.39801112 9.53927468 -9.79332884 8.08150284 -8.1875 6.625 C-7.29417969 5.81289062 -6.40085938 5.00078125 -5.48046875 4.1640625 C-3 2 -3 2 0 0 Z " fill="#E7EFF9" transform="translate(212,134)"/>
<path d="M0 0 C0.66 0 1.32 0 2 0 C1.01 2.97 0.02 5.94 -1 9 C-2.98 9.33 -4.96 9.66 -7 10 C-7 9.34 -7 8.68 -7 8 C-6.34 8 -5.68 8 -5 8 C-5 6.02 -5 4.04 -5 2 C-3.68 2.66 -2.36 3.32 -1 4 C-0.67 2.68 -0.34 1.36 0 0 Z " fill="#429AF2" transform="translate(31,56)"/>
<path d="M0 0 C0.66 0.33 1.32 0.66 2 1 C0.625 3 0.625 3 -1 5 C-1.66 5 -2.32 5 -3 5 C-3.33 6.32 -3.66 7.64 -4 9 C-5.32 9 -6.64 9 -8 9 C-8.33 8.01 -8.66 7.02 -9 6 C-6.03 4.02 -3.06 2.04 0 0 Z " fill="#A6C9FC" transform="translate(88,103)"/>
<path d="M0 0 C0.99 0.33 1.98 0.66 3 1 C3.08703823 4.43734063 3.14040272 7.87439837 3.1875 11.3125 C3.22520508 12.77719727 3.22520508 12.77719727 3.26367188 14.27148438 C3.27817383 15.67817383 3.27817383 15.67817383 3.29296875 17.11328125 C3.3086792 17.97735596 3.32438965 18.84143066 3.34057617 19.73168945 C2.93240678 22.45018536 2.10407096 23.30363829 0 25 C-0.66 24.67 -1.32 24.34 -2 24 C-1.26523438 22.73542969 -1.26523438 22.73542969 -0.515625 21.4453125 C1.17434951 17.60366942 1.3400749 15.04546789 1.25 10.875 C1.23453125 9.67617187 1.2190625 8.47734375 1.203125 7.2421875 C1.04046168 4.64583067 0.76184732 2.46985985 0 0 Z " fill="#CBE9FE" transform="translate(244,82)"/>
<path d="M0 0 C0.82633801 3.1070309 1.25506064 5.7692319 1 9 C0.34 9.66 -0.32 10.32 -1 11 C-1.185625 12.2065625 -1.185625 12.2065625 -1.375 13.4375 C-2.15584732 16.63897403 -3.35307838 17.19144598 -6 19 C-4.12275039 12.62267685 -2.14328358 6.29304541 0 0 Z " fill="#DBF1FE" transform="translate(37,44)"/>
<path d="M0 0 C1 2 1 2 0.375 3.9375 C-1.37689274 6.5653391 -3.2534629 7.46704906 -6 9 C-7.68477344 10.31037934 -9.35648543 11.63823078 -11 13 C-11.66 12.67 -12.32 12.34 -13 12 C-8.71 8.04 -4.42 4.08 0 0 Z " fill="#E3F2FE" transform="translate(234,114)"/>
<path d="M0 0 C1.5625 1.1875 1.5625 1.1875 3 3 C2.9375 5.5625 2.9375 5.5625 2 8 C-0 9.1875 -0 9.1875 -2 10 C-2.33 10.66 -2.66 11.32 -3 12 C-2.68950274 10.56206608 -2.3765224 9.1246682 -2.0625 7.6875 C-1.88847656 6.88699219 -1.71445312 6.08648437 -1.53515625 5.26171875 C-1 3 -1 3 0 0 Z " fill="#4C9EE5" transform="translate(21,30)"/>
<path d="M0 0 C1 3 1 3 0.5 5.125 C-1 7 -1 7 -4.625 7.75 C-5.73875 7.8325 -6.8525 7.915 -8 8 C-3.375 2.25 -3.375 2.25 0 0 Z " fill="#E6F8FD" transform="translate(176,166)"/>
<path d="M0 0 C2.475 0.495 2.475 0.495 5 1 C4.67 1.99 4.34 2.98 4 4 C4.96457834 5.35917857 5.96854629 6.69084721 7 8 C7.33 9.32 7.66 10.64 8 12 C5.69 10.35 3.38 8.7 1 7 C1.33 5.35 1.66 3.7 2 2 C1.34 2 0.68 2 0 2 C0 1.34 0 0.68 0 0 Z " fill="#4680EA" transform="translate(26,120)"/>
<path d="M0 0 C0.66 0.66 1.32 1.32 2 2 C0.35 5.3 -1.3 8.6 -3 12 C-3.33 12 -3.66 12 -4 12 C-4 8.7 -4 5.4 -4 2 C-2.68 1.34 -1.36 0.68 0 0 Z " fill="#4CA2E8" transform="translate(44,24)"/>
<path d="M0 0 C2.31 0 4.62 0 7 0 C7 0.66 7 1.32 7 2 C9.31 2 11.62 2 14 2 C14.33 3.65 14.66 5.3 15 7 C11.63608839 7 10.78996181 6.43632781 8.0625 4.625 C5.43725763 2.8950715 2.83737625 1.35838594 0 0 Z " fill="#DFF8FD" transform="translate(202,0)"/>
<path d="M0 0 C0.66 0.33 1.32 0.66 2 1 C1.01 1.33 0.02 1.66 -1 2 C-1.33 2.99 -1.66 3.98 -2 5 C-4 6.125 -4 6.125 -6 7 C-6.33 7.33 -6.66 7.66 -7 8 C-7.99 8.33 -8.98 8.66 -10 9 C-10 8.01 -10 7.02 -10 6 C-7.8828125 4.359375 -7.8828125 4.359375 -5.125 2.75 C-3.76761719 1.93789062 -3.76761719 1.93789062 -2.3828125 1.109375 C-1.20332031 0.56023437 -1.20332031 0.56023437 0 0 Z " fill="#538EEE" transform="translate(166,111)"/>
<path d="M0 0 C3.80635497 3.20760251 7.54563567 6.40746109 11 10 C7.62537285 9.45276317 5.91765 8.9451 3 7 C0 2.55555556 0 2.55555556 0 0 Z " fill="#E5F1FD" transform="translate(66,160)"/>
<path d="M0 0 C0 3 0 3 -1.875 5.1875 C-4 7 -4 7 -6 7 C-6.33 7.99 -6.66 8.98 -7 10 C-7.99 9.67 -8.98 9.34 -10 9 C-8.71142987 7.68445979 -7.41904109 6.37265903 -6.125 5.0625 C-5.04605469 3.96615234 -5.04605469 3.96615234 -3.9453125 2.84765625 C-2 1 -2 1 0 0 Z " fill="#E1F5FE" transform="translate(194,150)"/>
<path d="M0 0 C0.66 0.99 1.32 1.98 2 3 C1.34 3 0.68 3 0 3 C-0.103125 3.61875 -0.20625 4.2375 -0.3125 4.875 C-1 7 -1 7 -4 9 C-4 6.69 -4 4.38 -4 2 C-2.68 2 -1.36 2 0 2 C0 1.34 0 0.68 0 0 Z " fill="#C3DAFD" transform="translate(164,140)"/>
<path d="M0 0 C0.99 0 1.98 0 3 0 C3.99 4.29 4.98 8.58 6 13 C5.34 13 4.68 13 4 13 C3.32694982 11.39850114 2.66177773 9.79368971 2 8.1875 C1.62875 7.29417969 1.2575 6.40085937 0.875 5.48046875 C0 3 0 3 0 0 Z " fill="#D9F5FA" transform="translate(225,28)"/>
<path d="M0 0 C0.33 0.66 0.66 1.32 1 2 C-2.3 2 -5.6 2 -9 2 C-9 1.01 -9 0.02 -9 -1 C-5.25616401 -2.03995444 -3.27217674 -2.22040564 0 0 Z " fill="#E5F3F9" transform="translate(83,174)"/>
<path d="M0 0 C2.64 1.98 5.28 3.96 8 6 C6.02 6.99 6.02 6.99 4 8 C3.34 7.67 2.68 7.34 2 7 C2 6.34 2 5.68 2 5 C1.34 4.67 0.68 4.34 0 4 C0 2.68 0 1.36 0 0 Z " fill="#D1EEFC" transform="translate(6,108)"/>
<path d="M0 0 C-3.63 2.31 -7.26 4.62 -11 7 C-11.33 6.34 -11.66 5.68 -12 5 C-8.77464852 1.23708994 -4.90542108 -1.63514036 0 0 Z " fill="#4B8AEE" transform="translate(88,104)"/>
<path d="M0 0 C2.97 0.33 5.94 0.66 9 1 C9 1.99 9 2.98 9 4 C9.99 4 10.98 4 12 4 C11.67 4.99 11.34 5.98 11 7 C10.113125 6.38125 9.22625 5.7625 8.3125 5.125 C5.53938816 3.34602259 3.0859646 2.08916398 0 1 C0 0.67 0 0.34 0 0 Z " fill="#57A4E8" transform="translate(192,20)"/>
<path d="M0 0 C0.66 0.33 1.32 0.66 2 1 C1.21085079 2.60540659 0.41858235 4.20928016 -0.375 5.8125 C-0.81585937 6.70582031 -1.25671875 7.59914063 -1.7109375 8.51953125 C-3 11 -3 11 -5 14 C-4.45323217 9.44360141 -3.72706364 5.2668631 -2 1 C-1.34 0.67 -0.68 0.34 0 0 Z " fill="#D9F5FD" transform="translate(29,8)"/>
<path d="M0 0 C1.11375 0.4640625 1.11375 0.4640625 2.25 0.9375 C7.44702225 2.40998964 12.62487263 2.66949055 18 3 C18 3.33 18 3.66 18 4 C15.93757383 4.02717692 13.87504297 4.0464758 11.8125 4.0625 C10.66394531 4.07410156 9.51539062 4.08570313 8.33203125 4.09765625 C5.40699414 4.01192832 2.83683709 3.67849023 0 3 C0 2.01 0 1.02 0 0 Z " fill="#BDDAFE" transform="translate(112,200)"/>
<path d="M0 0 C1.33617352 0.97528737 2.6688751 1.95533319 4 2.9375 C4.7425 3.48277344 5.485 4.02804688 6.25 4.58984375 C6.8275 5.05519531 7.405 5.52054688 8 6 C8 6.33 8 6.66 8 7 C5.6875 7.25 5.6875 7.25 3 7 C1.1875 5.1875 1.1875 5.1875 0 3 C0 2.01 0 1.02 0 0 Z " fill="#E0F4FC" transform="translate(24,124)"/>
<path d="M0 0 C0.99 0.66 1.98 1.32 3 2 C2.67 3.65 2.34 5.3 2 7 C-0.475 6.01 -0.475 6.01 -3 5 C-2.01 3.35 -1.02 1.7 0 0 Z " fill="#3C78EC" transform="translate(165,145)"/>
<path d="M0 0 C0.66 0.33 1.32 0.66 2 1 C1.67 1.99 1.34 2.98 1 4 C1.99 4.33 2.98 4.66 4 5 C4.6875 7.0625 4.6875 7.0625 5 9 C-0.75 5.375 -0.75 5.375 -3 2 C-2.01 1.34 -1.02 0.68 0 0 Z " fill="#3C6DE4" transform="translate(100,184)"/>
<path d="M0 0 C0.99 0.66 1.98 1.32 3 2 C0.03 4.475 0.03 4.475 -3 7 C-3.33 5.68 -3.66 4.36 -4 3 C-2.68 2.01 -1.36 1.02 0 0 Z " fill="#D0E3F9" transform="translate(141,162)"/>
<path d="M0 0 C0.66 0.66 1.32 1.32 2 2 C-0.64 3.98 -3.28 5.96 -6 8 C-6.66 7.67 -7.32 7.34 -8 7 C-5.36 4.69 -2.72 2.38 0 0 Z " fill="#D7E6FB" transform="translate(160,180)"/>
<path d="M0 0 C0.99 0.33 1.98 0.66 3 1 C2.67 2.32 2.34 3.64 2 5 C0.02 5 -1.96 5 -4 5 C-4 4.34 -4 3.68 -4 3 C-2.1875 1.3125 -2.1875 1.3125 0 0 Z " fill="#3D74F9" transform="translate(157,176)"/>
<path d="M0 0 C-0.33 1.32 -0.66 2.64 -1 4 C-3.31 4.33 -5.62 4.66 -8 5 C-3.375 0 -3.375 0 0 0 Z " fill="#4685E9" transform="translate(176,106)"/>
<path d="M0 0 C0.33 0 0.66 0 1 0 C1.06058594 0.81984375 1.12117187 1.6396875 1.18359375 2.484375 C1.26738281 3.56203125 1.35117187 4.6396875 1.4375 5.75 C1.51871094 6.81734375 1.59992187 7.8846875 1.68359375 8.984375 C1.94090773 11.43679962 2.31812218 13.63921291 3 16 C2.01 15.67 1.02 15.34 0 15 C0 10.05 0 5.1 0 0 Z " fill="#BEE1FE" transform="translate(0,88)"/>
<path d="M0 0 C2.6855594 2.6855594 3.06049974 5.37621328 4 9 C2.35 9 0.7 9 -1 9 C-0.67 6.03 -0.34 3.06 0 0 Z " fill="#519CE6" transform="translate(225,31)"/>
<path d="M0 0 C0.66 0.33 1.32 0.66 2 1 C1.34 2.65 0.68 4.3 0 6 C-1.65 6 -3.3 6 -5 6 C-3.35 4.02 -1.7 2.04 0 0 Z " fill="#E8F3FD" transform="translate(182,160)"/>
<path d="M0 0 C0.78375 0.04125 1.5675 0.0825 2.375 0.125 C0.75905168 2.16619788 -0.9106382 4.16572937 -2.625 6.125 C-3.285 6.125 -3.945 6.125 -4.625 6.125 C-4.625 1.71963177 -4.59063093 0.21860147 0 0 Z " fill="#427EE6" transform="translate(196.625,144.875)"/>
<path d="M0 0 C1.31611677 0.95336021 2.62778961 1.91285774 3.9375 2.875 C4.66839844 3.40867188 5.39929688 3.94234375 6.15234375 4.4921875 C8 6 8 6 9 8 C7.35 7.67 5.7 7.34 4 7 C4 6.01 4 5.02 4 4 C3.01 4 2.02 4 1 4 C0.67 2.68 0.34 1.36 0 0 Z " fill="#4680DD" transform="translate(59,125)"/>
<path d="M0 0 C0.99 0 1.98 0 3 0 C3 0.66 3 1.32 3 2 C5.31 2 7.62 2 10 2 C10 2.33 10 2.66 10 3 C5.71 3 1.42 3 -3 3 C-2.01 2.01 -1.02 1.02 0 0 Z " fill="#4B83E8" transform="translate(153,119)"/>
<path d="M0 0 C0.66 0.33 1.32 0.66 2 1 C1.01 4.3 0.02 7.6 -1 11 C-1.33 11 -1.66 11 -2 11 C-1.85957123 9.35369672 -1.71250671 7.70795821 -1.5625 6.0625 C-1.48128906 5.14597656 -1.40007812 4.22945313 -1.31640625 3.28515625 C-1 1 -1 1 0 0 Z " fill="#DBF5FD" transform="translate(2,77)"/>
<path d="M0 0 C0.99 0.66 1.98 1.32 3 2 C1.02 2.99 -0.96 3.98 -3 5 C-3.99 4.01 -4.98 3.02 -6 2 C-3.1875 0.875 -3.1875 0.875 0 0 Z " fill="#4696EE" transform="translate(136,71)"/>
<path d="M0 0 C0.99 0.33 1.98 0.66 3 1 C3 1.33 3 1.66 3 2 C5.31 2.33 7.62 2.66 10 3 C10 3.33 10 3.66 10 4 C6.04 4 2.08 4 -2 4 C-1.34 2.68 -0.68 1.36 0 0 Z " fill="#3781F4" transform="translate(158,117)"/>
<path d="M0 0 C0.99 0.33 1.98 0.66 3 1 C1.515 4.96 1.515 4.96 0 9 C-0.33 9 -0.66 9 -1 9 C-1.09765625 2.84765625 -1.09765625 2.84765625 -1 1 C-0.67 0.67 -0.34 0.34 0 0 Z " fill="#D7F1FD" transform="translate(9,57)"/>
<path d="M0 0 C2.31 1.98 4.62 3.96 7 6 C3.42424104 6 1.94704065 4.91159393 -1 3 C-0.67 2.01 -0.34 1.02 0 0 Z " fill="#DFF0FE" transform="translate(58,153)"/>
<path d="M0 0 C1.16959987 0.97566112 2.33561177 1.955625 3.5 2.9375 C4.1496875 3.48277344 4.799375 4.02804688 5.46875 4.58984375 C5.9740625 5.05519531 6.479375 5.52054688 7 6 C7 6.33 7 6.66 7 7 C5.35 7 3.7 7 2 7 C2.33 6.01 2.66 5.02 3 4 C2.34 4 1.68 4 1 4 C0.67 2.68 0.34 1.36 0 0 Z " fill="#3E74DF" transform="translate(82,145)"/>
<path d="M0 0 C1.65 0 3.3 0 5 0 C3.625 2 3.625 2 2 4 C1.34 4 0.68 4 0 4 C0 4.66 0 5.32 0 6 C-0.66 5.67 -1.32 5.34 -2 5 C-1.34 3.35 -0.68 1.7 0 0 Z " fill="#97C0FE" transform="translate(184,123)"/>
<path d="M0 0 C0.66 0 1.32 0 2 0 C2.33 2.97 2.66 5.94 3 9 C-0.55555556 5.44444444 -0.55555556 5.44444444 -1 2 C-0.67 1.34 -0.34 0.68 0 0 Z " fill="#3A6EF6" transform="translate(94,177)"/>
<path d="M0 0 C0.66 0.33 1.32 0.66 2 1 C0.25 3.0625 0.25 3.0625 -2 5 C-4.25 4.75 -4.25 4.75 -6 4 C-4.02 2.68 -2.04 1.36 0 0 Z " fill="#95BFFD" transform="translate(65,117)"/>
<path d="M0 0 C0.99 0.33 1.98 0.66 3 1 C1.35 2.98 -0.3 4.96 -2 7 C-2.33 6.01 -2.66 5.02 -3 4 C-2.34 4 -1.68 4 -1 4 C-0.67 2.68 -0.34 1.36 0 0 Z " fill="#4384EC" transform="translate(225,118)"/>
<path d="M0 0 C0.66 0.33 1.32 0.66 2 1 C1.67 1.99 1.34 2.98 1 4 C-1.31 4.33 -3.62 4.66 -6 5 C-4.06745228 2.9754262 -2.36841312 1.57894208 0 0 Z " fill="#9AC0FC" transform="translate(73,112)"/>
<path d="M0 0 C2.31 0.33 4.62 0.66 7 1 C6.67 1.99 6.34 2.98 6 4 C3.69 3.34 1.38 2.68 -1 2 C-0.67 1.34 -0.34 0.68 0 0 Z " fill="#D4E1F6" transform="translate(134,76)"/>
</svg>
